# Blender v2.90.1 OBJ File: ''
# www.blender.org
mtllib armoir.mtl
o armoir
v 1.817197 0.173898 -0.808056
v 1.820258 0.173897 -0.012754
v 0.038526 0.173897 -0.010443
v 0.031555 1.834648 -0.014252
v 1.821093 1.834648 -0.011959
v 1.824159 1.834649 -0.804255
v 0.034621 1.834649 -0.806548
v 0.130838 0.239136 -0.060134
v 1.727837 0.239136 -0.061065
v 1.724876 1.771367 -0.060134
v 0.127877 1.771367 -0.061064
v 1.753821 0.239136 -0.081961
v 1.752589 0.239136 -0.738779
v 1.747916 1.771368 -0.751636
v 1.752589 1.771367 -0.079728
v 1.724878 0.239136 -0.758374
v 0.127876 0.239136 -0.757443
v 0.130836 1.771368 -0.758373
v 0.101893 0.239136 -0.736545
v 0.103126 0.239136 -0.079731
v 0.101893 1.771367 -0.081963
v 0.103126 1.771368 -0.738776
v 0.094351 0.239136 -0.766889
v 0.091289 0.239136 -0.053921
v 1.764866 0.239136 -0.764576
v 1.761806 0.239136 -0.051629
v 0.035465 0.173898 -0.805764
v 1.772348 1.771367 -0.051013
v 0.086433 1.771367 -0.048720
v 1.769282 1.771368 -0.769786
v 0.083366 1.771368 -0.767493
v 1.801909 0.070385 -0.003238
v 1.650303 0.072779 0.000078
v 1.650937 0.070385 -0.113629
v 1.802542 0.072779 -0.116946
v 1.635178 0.108366 0.010378
v 1.817668 0.108366 0.010378
v 1.770184 0.176139 -0.025308
v 1.682496 0.176139 -0.025432
v 1.635178 0.108367 -0.127245
v 1.682662 0.176139 -0.091560
v 1.817668 0.108367 -0.127245
v 1.770349 0.176139 -0.091435
v 1.801909 0.070385 -0.675973
v 1.650303 0.072779 -0.672657
v 1.650937 0.070386 -0.786363
v 1.802542 0.072779 -0.789680
v 1.635178 0.108368 -0.662356
v 1.817668 0.108368 -0.662356
v 1.770184 0.176139 -0.698042
v 1.682496 0.176139 -0.698166
v 1.635178 0.108368 -0.799980
v 1.682662 0.176139 -0.764293
v 1.817668 0.108368 -0.799980
v 1.770349 0.176139 -0.764169
v 0.198231 0.070385 -0.003238
v 0.046626 0.072779 0.000078
v 0.047259 0.070385 -0.113629
v 0.198865 0.072779 -0.116946
v 0.031500 0.108366 0.010378
v 0.213990 0.108366 0.010378
v 0.166506 0.176139 -0.025308
v 0.078820 0.176139 -0.025432
v 0.031500 0.108367 -0.127245
v 0.078984 0.176139 -0.091560
v 0.213990 0.108367 -0.127245
v 0.166672 0.176139 -0.091435
v 0.198231 0.070385 -0.675973
v 0.046626 0.072779 -0.672657
v 0.047259 0.070386 -0.786363
v 0.198865 0.072779 -0.789680
v 0.031500 0.108368 -0.662356
v 0.213990 0.108368 -0.662356
v 0.166506 0.176139 -0.698042
v 0.078820 0.176139 -0.698166
v 0.031500 0.108368 -0.799980
v 0.078984 0.176139 -0.764293
v 0.213990 0.108368 -0.799980
v 0.166672 0.176139 -0.764169
vt 0.497616 0.788770
vt 0.291557 0.784170
vt 0.291033 0.436050
vt 0.229979 0.434490
vt 0.230893 0.788258
vt 0.027172 0.783555
vt 0.025952 0.429915
vt 0.186833 0.000500
vt 0.501283 0.000500
vt 0.500676 0.400756
vt 0.186225 0.400756
vt 0.507090 0.000500
vt 0.678513 0.000500
vt 0.680755 0.400756
vt 0.506483 0.400756
vt 0.684320 0.000500
vt 0.998771 0.000500
vt 0.998164 0.400756
vt 0.009603 0.000500
vt 0.181025 0.000500
vt 0.180418 0.400756
vt 0.008996 0.400756
vt 0.307362 0.408782
vt 0.479706 0.408808
vt 0.485698 0.410541
vt 0.302269 0.410004
vt 0.521153 0.451643
vt 0.521128 0.766736
vt 0.517859 0.769986
vt 0.517815 0.449809
vt 0.480350 0.810263
vt 0.307717 0.810235
vt 0.301728 0.808422
vt 0.485280 0.808364
vt 0.266193 0.767655
vt 0.268529 0.452013
vt 0.273108 0.450686
vt 0.269531 0.769652
vt 0.495808 0.435149
vt 0.287780 0.427543
vt 0.496046 0.783397
vt 0.290212 0.788859
vt 0.257626 0.448871
vt 0.257502 0.768559
vt 0.252978 0.771057
vt 0.252906 0.447501
vt 0.214562 0.811796
vt 0.039448 0.813368
vt 0.035723 0.808178
vt 0.220197 0.808152
vt 0.000621 0.766327
vt 0.000722 0.452332
vt 0.004788 0.447202
vt 0.004875 0.770180
vt 0.041689 0.406211
vt 0.213917 0.406335
vt 0.220577 0.409831
vt 0.036109 0.409930
vt 0.230412 0.783107
vt 0.026332 0.788151
vt 0.026777 0.434943
vt 0.230501 0.429773
vt 0.960736 0.440955
vt 0.990523 0.440387
vt 0.989923 0.470134
vt 0.960179 0.470556
vt 0.924466 0.411453
vt 0.950444 0.437019
vt 0.931071 0.447228
vt 0.914476 0.430911
vt 0.888109 0.411362
vt 0.894621 0.432266
vt 0.862230 0.436498
vt 0.882857 0.443771
vt 0.950942 0.473173
vt 0.931327 0.463681
vt 0.931971 0.407014
vt 0.954779 0.429482
vt 0.890242 0.402985
vt 0.922258 0.402985
vt 0.857794 0.429201
vt 0.880645 0.406777
vt 0.071305 0.960773
vt 0.072167 0.990584
vt 0.042343 0.990032
vt 0.041659 0.960215
vt 0.012966 0.888099
vt 0.038220 0.862276
vt 0.044073 0.875068
vt 0.026032 0.893436
vt 0.013052 0.924425
vt 0.026115 0.919160
vt 0.038422 0.950654
vt 0.049223 0.932275
vt 0.074697 0.950801
vt 0.064638 0.932284
vt 0.008361 0.880630
vt 0.030873 0.857794
vt 0.004542 0.922253
vt 0.004525 0.890185
vt 0.030827 0.954911
vt 0.008501 0.931892
vt 0.526690 0.543075
vt 0.526405 0.513306
vt 0.555979 0.513981
vt 0.556456 0.543756
vt 0.560413 0.415471
vt 0.585562 0.441351
vt 0.566019 0.451251
vt 0.553141 0.436089
vt 0.559904 0.503758
vt 0.523731 0.503916
vt 0.533410 0.484341
vt 0.553075 0.482943
vt 0.585419 0.477710
vt 0.565973 0.467702
vt 0.567707 0.411035
vt 0.590127 0.433880
vt 0.589877 0.485214
vt 0.567455 0.508057
vt 0.593941 0.443494
vt 0.593885 0.475502
vt 0.081015 0.872570
vt 0.051415 0.873126
vt 0.051836 0.843383
vt 0.081583 0.842783
vt 0.048798 0.882359
vt 0.084954 0.882861
vt 0.078103 0.903678
vt 0.058288 0.901970
vt 0.110611 0.945199
vt 0.085472 0.971076
vt 0.078202 0.950448
vt 0.091066 0.935284
vt 0.110520 0.908840
vt 0.089638 0.915413
vt 0.115195 0.952664
vt 0.092769 0.975513
vt 0.118988 0.911049
vt 0.118988 0.943065
vt 0.092491 0.878527
vt 0.114958 0.901335
vt 0.004525 0.400756
vt 0.004525 0.000500
vt 0.302595 0.405335
vt 0.485422 0.405530
vt 0.485414 0.813504
vt 0.301991 0.813511
vt 0.219736 0.402985
vt 0.219736 0.815063
vt 0.036444 0.403012
vn 0.6919 -0.2794 -0.6657
vn 0.7087 -0.2753 0.6496
vn -0.6927 -0.2786 0.6652
vn -0.7098 0.2850 0.6441
vn 0.6920 0.2897 0.6612
vn 0.7098 0.2850 -0.6441
vn -0.6920 0.2897 -0.6612
vn -0.1886 0.7820 0.5940
vn 0.2039 0.7898 0.5785
vn 0.1886 -0.7820 0.5941
vn -0.2039 -0.7898 0.5785
vn 0.5181 0.8189 0.2469
vn 0.5010 0.8260 -0.2583
vn 0.3042 -0.9026 -0.3044
vn 0.4998 -0.8273 0.2566
vn 0.1877 0.7816 -0.5949
vn -0.2039 0.7898 -0.5785
vn -0.1880 -0.7822 -0.5940
vn -0.5184 0.8185 -0.2477
vn -0.5002 0.8261 0.2596
vn -0.5184 -0.8185 0.2477
vn -0.5002 -0.8261 -0.2595
vn -0.3122 0.8584 -0.4070
vn -0.3369 0.8606 0.3818
vn 0.3386 0.8601 -0.3816
vn 0.3138 0.8579 0.4068
vn -0.7094 -0.2745 -0.6491
vn 0.3459 -0.8507 0.3957
vn -0.3198 -0.8480 0.4225
vn 0.3198 -0.8480 -0.4225
vn -0.3459 -0.8507 -0.3957
vn 0.4514 -0.7638 0.4613
vn -0.4489 -0.7380 0.5038
vn -0.4514 -0.7638 -0.4613
vn 0.4489 -0.7380 -0.5038
vn -0.7234 0.1007 0.6830
vn 0.7199 0.0895 0.6883
vn 0.4945 0.6505 0.5764
vn -0.4973 0.6511 0.5734
vn -0.7199 0.0895 -0.6883
vn -0.4945 0.6505 -0.5764
vn 0.7234 0.1007 -0.6830
vn 0.4973 0.6511 -0.5734
vn -0.4973 0.6511 0.5735
vn -0.4490 -0.7380 0.5038
usemtl Material__45
s 1
f 1/1/1 2/2/2 3/3/3
f 4/4/4 5/5/5 6/6/6
f 4/4/4 6/6/6 7/7/7
f 8/8/8 9/9/9 10/10/10
f 10/10/10 11/11/11 8/8/8
f 12/12/12 13/13/13 14/14/14
f 14/14/14 15/15/15 12/12/12
f 16/16/16 17/17/17 18/18/18
f 18/18/18 14/14/14 16/16/16
f 19/19/19 20/20/20 21/21/21
f 21/21/21 22/22/22 19/19/19
f 20/23/20 19/24/19 23/25/23
f 23/25/23 24/26/24 20/23/20
f 17/27/17 16/28/16 25/29/25
f 25/29/25 23/30/23 17/27/17
f 13/31/13 12/32/12 26/33/26
f 26/33/26 25/34/25 13/31/13
f 9/35/9 8/36/8 24/37/24
f 24/37/24 26/38/26 9/35/9
f 24/26/24 23/25/23 27/39/27
f 27/39/27 3/40/3 24/26/24
f 23/30/23 25/29/25 1/41/1
f 1/41/1 27/39/27 23/30/23
f 25/34/25 26/33/26 2/42/2
f 2/42/2 1/1/1 25/34/25
f 26/38/26 24/37/24 3/3/3
f 3/3/3 2/2/2 26/38/26
f 11/43/11 10/44/10 28/45/28
f 28/45/28 29/46/29 11/43/11
f 15/47/15 14/48/14 30/49/30
f 30/49/30 28/50/28 15/47/15
f 14/51/14 18/52/18 31/53/31
f 31/53/31 30/54/30 14/51/14
f 22/55/22 21/56/21 29/57/29
f 29/57/29 31/58/31 22/55/22
f 29/46/29 28/45/28 5/59/5
f 5/59/5 4/4/4 29/46/29
f 28/50/28 30/49/30 6/60/6
f 6/60/6 5/5/5 28/50/28
f 30/54/30 31/53/31 7/61/7
f 7/61/7 6/6/6 30/54/30
f 31/58/31 29/57/29 4/62/4
f 4/62/4 7/7/7 31/58/31
f 32/63/32 33/64/33 34/65/34
f 34/65/34 35/66/35 32/63/32
f 36/67/36 37/68/37 38/69/38
f 38/69/38 39/70/39 36/67/36
f 40/71/40 36/67/36 39/70/39
f 39/70/39 41/72/41 40/71/40
f 42/73/42 40/71/40 41/72/41
f 41/72/41 43/74/43 42/73/42
f 37/68/37 42/75/42 43/76/43
f 43/76/43 38/69/38 37/68/37
f 33/77/33 32/78/32 37/68/37
f 37/68/37 36/67/36 33/77/33
f 34/79/34 33/80/33 36/67/36
f 36/67/36 40/71/40 34/79/34
f 35/81/35 34/82/34 40/71/40
f 40/71/40 42/73/42 35/81/35
f 32/63/32 35/66/35 42/75/42
f 42/75/42 37/68/37 32/63/32
f 44/83/32 45/84/33 46/85/34
f 46/85/34 47/86/35 44/83/32
f 48/87/36 49/88/37 50/89/38
f 50/89/38 51/90/44 48/87/36
f 52/91/40 48/87/36 51/90/44
f 51/90/44 53/92/41 52/91/40
f 54/93/42 52/91/40 53/92/41
f 53/92/41 55/94/43 54/93/42
f 49/95/37 54/93/42 55/94/43
f 55/94/43 50/96/38 49/95/37
f 45/97/33 44/98/32 49/88/37
f 49/88/37 48/87/36 45/97/33
f 46/99/34 45/100/33 48/87/36
f 48/87/36 52/91/40 46/99/34
f 47/101/35 46/102/34 52/91/40
f 52/91/40 54/93/42 47/101/35
f 44/83/32 47/86/35 54/93/42
f 54/93/42 49/95/37 44/83/32
f 56/103/32 57/104/33 58/105/34
f 58/105/34 59/106/35 56/103/32
f 60/107/36 61/108/37 62/109/38
f 62/109/38 63/110/39 60/107/36
f 64/111/40 60/112/36 63/113/39
f 63/113/39 65/114/41 64/111/40
f 66/115/42 64/111/40 65/114/41
f 65/114/41 67/116/43 66/115/42
f 61/108/37 66/115/42 67/116/43
f 67/116/43 62/109/38 61/108/37
f 57/117/33 56/118/32 61/108/37
f 61/108/37 60/107/36 57/117/33
f 58/105/34 57/104/33 60/112/36
f 60/112/36 64/111/40 58/105/34
f 59/119/35 58/120/34 64/111/40
f 64/111/40 66/115/42 59/119/35
f 56/121/32 59/122/35 66/115/42
f 66/115/42 61/108/37 56/121/32
f 68/123/32 69/124/45 70/125/34
f 70/125/34 71/126/35 68/123/32
f 72/127/36 73/128/37 74/129/38
f 74/129/38 75/130/44 72/127/36
f 76/131/40 72/132/36 75/133/44
f 75/133/44 77/134/41 76/131/40
f 78/135/42 76/131/40 77/134/41
f 77/134/41 79/136/43 78/135/42
f 73/128/37 78/135/42 79/136/43
f 79/136/43 74/129/38 73/128/37
f 69/124/45 68/123/32 73/128/37
f 73/128/37 72/127/36 69/124/45
f 70/137/34 69/138/45 72/132/36
f 72/132/36 76/131/40 70/137/34
f 71/139/35 70/140/34 76/131/40
f 76/131/40 78/135/42 71/139/35
f 68/141/32 71/142/35 78/135/42
f 78/135/42 73/128/37 68/141/32
f 15/15/15 10/10/10 9/9/9
f 9/9/9 12/12/12 15/15/15
f 20/20/20 8/8/8 11/11/11
f 11/11/11 21/21/21 20/20/20
f 13/13/13 16/16/16 14/14/14
f 22/22/22 18/143/18 17/144/17
f 17/144/17 19/19/19 22/22/22
f 8/145/8 20/23/20 24/26/24
f 19/24/19 17/146/17 23/25/23
f 16/147/16 13/31/13 25/34/25
f 12/32/12 9/148/9 26/33/26
f 21/56/21 11/149/11 29/57/29
f 10/150/10 15/47/15 28/50/28
f 18/151/18 22/55/22 31/58/31
f 1/1/1 3/3/3 27/39/27
