# Blender v2.90.1 OBJ File: ''
# www.blender.org
mtllib bathtub.mtl
v 0.766124 0.606169 -0.075300
v 0.766124 0.578521 -0.075300
v 0.772009 0.573646 -0.067987
v 0.772009 0.611044 -0.067987
v 0.808947 0.611687 -0.070667
v 0.808816 0.573646 -0.067987
v 0.824456 0.584424 -0.072712
v 0.863011 0.590207 -0.072627
v 0.861686 0.621249 -0.072865
v 0.952541 0.573248 -0.067390
v 0.952541 0.611442 -0.067390
v 0.772009 0.611044 -0.067987
v 0.772009 0.573646 -0.067987
v 0.952541 0.611442 -0.124681
v 0.952541 0.573248 -0.124681
v 0.863017 0.590207 -0.119343
v 0.861681 0.621249 -0.119322
v 0.824456 0.584424 -0.119359
v 0.809038 0.611674 -0.122157
v 0.808816 0.573646 -0.124084
v 0.772009 0.611044 -0.124084
v 0.772009 0.573646 -0.124084
v 0.766124 0.578521 -0.116772
v 0.766124 0.606169 -0.116772
v 0.772009 0.573646 -0.124084
v 0.772009 0.611044 -0.124084
v 0.769067 0.576083 -0.071643
v 0.769066 0.576083 -0.120428
v 0.808816 0.573646 -0.067987
v 0.808816 0.573646 -0.124084
v 0.830995 0.589079 -0.118174
v 0.830911 0.589974 -0.073920
v 0.952541 0.573248 -0.124681
v 0.952541 0.573248 -0.067390
v 0.772009 0.573646 -0.067987
v 0.772009 0.573646 -0.124084
v 0.769066 0.608606 -0.120428
v 0.769066 0.608606 -0.071643
v 0.808816 0.611044 -0.124084
v 0.808816 0.611044 -0.067987
v 0.829863 0.619372 -0.073914
v 0.829694 0.620295 -0.118147
v 0.952541 0.611442 -0.067390
v 0.952541 0.611442 -0.124681
v 0.772009 0.611044 -0.124084
v 0.772009 0.611044 -0.067987
v 0.952541 0.611442 -0.067390
v 0.952541 0.573248 -0.067390
v 0.952541 0.573248 -0.124681
v 0.952541 0.611442 -0.124681
v 0.766124 0.606169 -0.116772
v 0.766124 0.578521 -0.116772
v 0.766124 0.578521 -0.075300
v 0.766124 0.606169 -0.075300
v 0.914019 0.567779 -0.020279
v 0.953189 0.567779 -0.020279
v 0.953189 0.578716 -0.020279
v 0.914019 0.578716 -0.020279
v 0.914019 0.578716 -0.020279
v 0.953189 0.578716 -0.020279
v 0.953189 0.578716 -0.170692
v 0.914019 0.578716 -0.170692
v 0.914019 0.578716 -0.170692
v 0.953189 0.578716 -0.170692
v 0.953189 0.567779 -0.170692
v 0.914019 0.567779 -0.170692
v 0.914019 0.567779 -0.170692
v 0.953189 0.567779 -0.170692
v 0.953189 0.567779 -0.020279
v 0.914019 0.567779 -0.020279
v 0.953189 0.567779 -0.020279
v 0.953189 0.567779 -0.170692
v 0.953189 0.578716 -0.170692
v 0.953189 0.578716 -0.020279
v 0.914019 0.567779 -0.170692
v 0.914019 0.567779 -0.020279
v 0.914019 0.578716 -0.020279
v 0.914019 0.578716 -0.170692
v 0.926571 0.578741 -0.131093
v 0.944065 0.578741 -0.131093
v 0.944065 0.589714 -0.131093
v 0.926571 0.589714 -0.131093
v 0.926571 0.589714 -0.131093
v 0.944065 0.589714 -0.131093
v 0.944065 0.589714 -0.174461
v 0.926571 0.589714 -0.174461
v 0.926571 0.589714 -0.174461
v 0.944065 0.589714 -0.174461
v 0.944065 0.578741 -0.174461
v 0.926571 0.578741 -0.174461
v 0.926571 0.578741 -0.174461
v 0.944065 0.578741 -0.174461
v 0.944065 0.578741 -0.131093
v 0.926571 0.578741 -0.131093
v 0.944065 0.578741 -0.131093
v 0.944065 0.578741 -0.174461
v 0.944065 0.589714 -0.174461
v 0.944065 0.589714 -0.131093
v 0.926571 0.578741 -0.174461
v 0.926571 0.578741 -0.131093
v 0.926571 0.589714 -0.131093
v 0.926571 0.589714 -0.174461
v 0.926571 0.578741 -0.016510
v 0.944065 0.578741 -0.016510
v 0.944065 0.589714 -0.016510
v 0.926571 0.589714 -0.016510
v 0.926571 0.589714 -0.016510
v 0.944065 0.589714 -0.016510
v 0.944065 0.589714 -0.059878
v 0.926571 0.589714 -0.059878
v 0.926571 0.589714 -0.059878
v 0.944065 0.589714 -0.059878
v 0.944065 0.578741 -0.059878
v 0.926571 0.578741 -0.059878
v 0.926571 0.578741 -0.059878
v 0.944065 0.578741 -0.059878
v 0.944065 0.578741 -0.016510
v 0.926571 0.578741 -0.016510
v 0.944065 0.578741 -0.016510
v 0.944065 0.578741 -0.059878
v 0.944065 0.589714 -0.059878
v 0.944065 0.589714 -0.016510
v 0.926571 0.578741 -0.059878
v 0.926571 0.578741 -0.016510
v 0.926571 0.589714 -0.016510
v 0.926571 0.589714 -0.059878
v -0.954855 0.573492 0.381942
v -0.861201 0.574268 0.277096
v -0.597558 0.573506 0.343157
v 0.596282 0.573502 0.343443
v 0.954855 0.573492 0.381942
v 0.861201 0.574268 0.277096
v 0.844912 0.528771 0.169368
v -0.923890 0.573356 -0.095486
v 0.889888 0.523570 -0.036480
v 0.923890 0.573356 -0.095486
v -0.861201 0.574268 -0.468067
v 0.871218 0.524592 -0.276050
v -0.844912 0.528771 -0.360339
v -0.736550 0.524327 -0.467189
v -0.596282 0.573502 -0.534414
v -0.622931 0.521732 -0.503519
v 0.597559 0.573506 -0.534128
v 0.626641 0.522269 -0.503113
v 0.763145 0.528952 -0.455272
v 0.861201 0.574268 -0.468067
v -0.763145 0.528952 0.264301
v -0.871218 0.524592 0.085078
v -0.624325 0.520299 0.312008
v 0.626527 0.520806 0.311476
v 0.736550 0.524327 0.276218
v -0.889889 0.523570 -0.154491
v -0.791742 0.157328 0.199041
v -0.728203 0.131409 0.248965
v -0.843379 0.155323 0.082233
v -0.616013 0.150749 0.294626
v 0.611225 0.154462 0.296968
v 0.729592 0.157988 0.256501
v 0.795831 0.153761 0.192906
v 0.853934 0.227347 0.087559
v -0.864076 0.155633 -0.144742
v 0.866897 0.153037 -0.102149
v -0.616951 0.151753 -0.485613
v -0.729592 0.157988 -0.447472
v -0.806154 0.157774 -0.372587
v 0.611027 0.154265 -0.487564
v 0.838012 0.152292 -0.285442
v 0.791742 0.157328 -0.390012
v 0.728203 0.131409 -0.439936
v -0.556530 0.088830 0.252264
v -0.674353 0.071995 0.071566
v -0.807749 0.105623 -0.013599
v -0.260025 0.071083 0.215797
v 0.563894 0.106238 0.269413
v 0.086398 0.070681 0.214889
v 0.474091 0.072258 0.220864
v 0.729870 0.105497 0.197816
v 0.667471 0.071640 0.077470
v -0.667471 0.071640 -0.268441
v 0.807749 0.105623 -0.177372
v 0.674353 0.071995 -0.262537
v -0.564074 0.106235 -0.460338
v -0.729870 0.105497 -0.388788
v -0.474091 0.072258 -0.411835
v -0.086398 0.070681 -0.405860
v 0.260025 0.071083 -0.406768
v 0.557778 0.089627 -0.444364
v -0.358139 0.045723 0.046385
v -0.094004 0.049113 0.094625
v 0.954855 0.573492 -0.572913
v -0.954855 0.573492 -0.572913
v 0.344183 0.047540 0.083532
v -0.402251 0.051708 -0.283574
v -0.094004 0.049113 -0.285597
v 0.337717 0.049158 -0.287088
v -0.954855 0.000579 0.381942
v -0.954855 0.573492 0.381942
v 0.954855 0.573492 0.381942
v 0.954855 0.000579 0.381942
v -0.954855 0.573492 -0.572913
v -0.954855 0.000579 -0.572913
v 0.954855 0.000579 -0.572913
v 0.954855 0.573492 -0.572913
v 0.954855 0.000579 -0.572913
v 0.954855 0.573492 -0.572913
v 0.954855 0.573492 0.381942
v 0.954855 0.000579 0.381942
v -0.954855 0.000579 -0.572913
v -0.954855 0.573492 -0.572913
v -0.954855 0.000579 0.381942
v -0.954855 0.573492 0.381942
vt 0.899873 0.077123
vt 0.899873 0.109364
vt 0.948233 0.109364
vt 0.948233 0.077123
vt 0.941557 0.081574
vt 0.941557 0.104913
vt 0.906549 0.104913
vt 0.906549 0.081574
vt 0.838199 0.138701
vt 0.838199 0.171766
vt 0.838199 0.171766
vt 0.838199 0.138701
vt 0.838199 0.138701
vt 0.838199 0.171766
vt 0.965165 0.171766
vt 0.965165 0.138701
vt 0.965165 0.138701
vt 0.965165 0.171766
vt 0.965165 0.171766
vt 0.965165 0.138701
vt 0.965165 0.138701
vt 0.965165 0.171766
vt 0.838199 0.171766
vt 0.838199 0.138701
vt 0.860105 0.113979
vt 0.987072 0.113979
vt 0.987072 0.104748
vt 0.860105 0.104748
vt 0.987072 0.113979
vt 0.860105 0.113979
vt 0.860105 0.104748
vt 0.987072 0.104748
vt 0.931739 0.149297
vt 0.931739 0.164064
vt 0.931739 0.164064
vt 0.931739 0.149297
vt 0.931739 0.149297
vt 0.931739 0.164064
vt 0.968347 0.164064
vt 0.968347 0.149297
vt 0.968347 0.149297
vt 0.968347 0.164064
vt 0.968347 0.164064
vt 0.968347 0.149297
vt 0.968347 0.149297
vt 0.968347 0.164064
vt 0.931739 0.164064
vt 0.931739 0.149297
vt 0.953645 0.104727
vt 0.990253 0.104727
vt 0.990253 0.095464
vt 0.953645 0.095464
vt 0.990253 0.104727
vt 0.953645 0.104727
vt 0.953645 0.095464
vt 0.990253 0.095464
vt 0.835018 0.149297
vt 0.835018 0.164064
vt 0.835018 0.164064
vt 0.835018 0.149297
vt 0.835018 0.149297
vt 0.835018 0.164064
vt 0.871625 0.164064
vt 0.871625 0.149297
vt 0.871625 0.149297
vt 0.871625 0.164064
vt 0.871625 0.164064
vt 0.871625 0.149297
vt 0.871625 0.149297
vt 0.871625 0.164064
vt 0.835018 0.164064
vt 0.835018 0.149297
vt 0.856924 0.104727
vt 0.893532 0.104727
vt 0.893532 0.095464
vt 0.856924 0.095464
vt 0.893532 0.104727
vt 0.856924 0.104727
vt 0.856924 0.095464
vt 0.893532 0.095464
vt 0.522237 0.008191
vt 0.817295 0.991718
vt 0.817295 0.008191
vt 0.522237 0.991718
vt 0.817295 0.008191
vt 0.522237 0.991718
vt 0.522237 0.008191
vt 0.817295 0.991718
vt 0.520159 0.498606
vt 0.815217 0.498606
vt 0.815217 0.006842
vt 0.520159 0.006842
vt 0.520159 0.498606
vt 0.520159 0.006842
vt 0.815217 0.006842
vt 0.815217 0.498606
vt 0.906549 0.081574
vt 0.906549 0.104913
vt 0.900377 0.109028
vt 0.900377 0.077459
vt 0.878715 0.050706
vt 0.878470 0.049897
vt 0.882459 0.063100
vt 0.882339 0.095552
vt 0.882388 0.094490
vt 0.877966 0.171219
vt 0.877966 0.171219
vt 0.878470 0.018828
vt 0.878470 0.018828
vt 0.926327 0.171219
vt 0.926327 0.171219
vt 0.921955 0.095552
vt 0.921906 0.094490
vt 0.921835 0.063100
vt 0.925609 0.050606
vt 0.925823 0.049897
vt 0.947729 0.077459
vt 0.947729 0.109028
vt 0.941557 0.104913
vt 0.941557 0.081574
vt 0.925823 0.018828
vt 0.925823 0.018828
vt 0.878470 0.049897
vt 0.925823 0.049897
vt 0.921877 0.069009
vt 0.882411 0.069012
vt 0.926327 0.171219
vt 0.877966 0.171219
vt 0.878470 0.018828
vt 0.925823 0.018828
vt 0.925823 0.049897
vt 0.878470 0.049897
vt 0.882421 0.067996
vt 0.921876 0.067938
vt 0.877966 0.171219
vt 0.926327 0.171219
vt 0.925823 0.018828
vt 0.878470 0.018828
vt 0.032468 0.192300
vt 0.010704 0.008191
vt 0.032433 0.806946
vt 0.010704 0.991718
vt 0.076694 0.930777
vt 0.502468 0.008191
vt 0.256539 0.028762
vt 0.436477 0.069132
vt 0.348843 0.947314
vt 0.256539 0.971147
vt 0.436477 0.930777
vt 0.391590 0.067509
vt 0.448939 0.121545
vt 0.480703 0.807609
vt 0.464750 0.819028
vt 0.440319 0.890700
vt 0.454362 0.814344
vt 0.464864 0.182349
vt 0.173467 0.160283
vt 0.083752 0.131590
vt 0.081522 0.214450
vt 0.095743 0.544467
vt 0.071247 0.790098
vt 0.098771 0.743420
vt 0.111524 0.868863
vt 0.343992 0.161880
vt 0.215425 0.094195
vt 0.169180 0.838029
vt 0.297747 0.905714
vt 0.339705 0.839626
vt 0.414401 0.256489
vt 0.441915 0.209717
vt 0.401647 0.131046
vt 0.417428 0.455442
vt 0.417755 0.633929
vt 0.432460 0.785623
vt 0.429419 0.868319
vt 0.076694 0.069132
vt 0.048247 0.183371
vt 0.072852 0.109209
vt 0.048422 0.818609
vt 0.121581 0.932400
vt 0.064232 0.878364
vt 0.164328 0.052595
vt 0.227462 0.956854
vt 0.285710 0.043055
vt 0.502468 0.991718
vt 0.480739 0.192963
vt 0.059042 0.186306
vt 0.105456 0.095877
vt 0.171963 0.068813
vt 0.058744 0.814167
vt 0.114843 0.908384
vt 0.076596 0.873191
vt 0.162822 0.937615
vt 0.288262 0.059840
vt 0.249102 0.943140
vt 0.396974 0.090206
vt 0.436575 0.126718
vt 0.454027 0.185169
vt 0.407715 0.904032
vt 0.344970 0.930730
vt 0.190935 0.290963
vt 0.095416 0.365980
vt 0.149930 0.451678
vt 0.168392 0.682485
vt 0.347561 0.283868
vt 0.363241 0.451678
vt 0.353065 0.679818
vn 1.0000 0.0000 0.0000
vn -1.0000 0.0000 0.0000
vn 0.0000 0.0000 1.0000
vn 0.0000 1.0000 0.0000
vn 0.0000 0.0000 -1.0000
vn 0.0000 -1.0000 0.0000
vn -0.7790 0.0000 0.6270
vn -0.1089 -0.0000 0.9941
vn -0.1089 0.0001 0.9941
vn 0.0282 0.0366 0.9989
vn 0.0627 0.0476 0.9969
vn 0.0694 -0.0073 0.9976
vn -0.0142 -0.0034 0.9999
vn -0.0107 0.0063 0.9999
vn -0.0596 0.0011 0.9982
vn -0.0602 0.0000 0.9982
vn -0.0743 0.0348 0.9966
vn -0.1088 0.0000 0.9941
vn -0.0594 -0.0004 -0.9982
vn -0.0595 -0.0000 -0.9982
vn -0.0323 -0.0008 -0.9995
vn -0.0145 -0.0130 -0.9998
vn 0.0945 -0.0021 -0.9955
vn 0.0254 0.0009 -0.9997
vn 0.0458 0.0500 -0.9977
vn -0.1089 0.0000 -0.9941
vn -0.7790 0.0000 -0.6270
vn -0.0822 0.0256 -0.9963
vn -0.0570 -0.0006 -0.9984
vn 0.1817 -0.9833 0.0055
vn 0.1732 -0.9849 0.0000
vn 0.2827 -0.9582 0.0443
vn 0.2495 -0.9682 0.0208
vn -0.1344 -0.9909 0.0044
vn -0.1362 -0.9907 0.0000
vn -0.0552 -0.9985 -0.0000
vn -0.1306 0.9914 0.0052
vn -0.1160 0.9933 0.0012
vn -0.1589 0.9872 0.0131
vn -0.1822 0.9831 0.0185
vn 0.0700 0.9975 0.0046
vn 0.0719 0.9974 0.0000
vn -0.0552 0.9985 0.0000
vn 0.1227 0.8967 -0.4253
vn -0.0033 1.0000 0.0035
vn 0.0002 0.8434 -0.5373
vn 0.0033 1.0000 0.0035
vn -0.1191 0.9876 -0.1023
vn -0.0033 1.0000 -0.0035
vn 0.4935 0.8691 0.0345
vn 0.1591 0.9702 0.1826
vn -0.9473 0.2571 0.1912
vn -0.4994 0.8661 -0.0198
vn -0.1450 0.9858 0.0845
vn 0.8379 0.3572 0.4128
vn 0.4766 0.3029 0.8253
vn -0.0456 0.8380 0.5437
vn -0.2035 0.1815 0.9621
vn -0.4699 0.3669 0.8029
vn -0.1602 0.2878 0.9442
vn 0.1465 0.2943 0.9444
vn 0.2202 0.9701 -0.1022
vn 0.4715 0.5998 -0.6465
vn 0.0808 0.8580 -0.5073
vn -0.0274 0.9233 -0.3831
vn -0.0942 0.7485 -0.6564
vn -0.0306 0.9362 -0.3501
vn -0.3628 0.8661 -0.3438
vn 0.1904 0.9770 0.0965
vn 0.4826 0.8723 -0.0790
vn -0.1894 0.9774 -0.0937
vn -0.4589 0.8848 0.0805
vn -0.1892 0.9748 0.1181
vn 0.0650 0.9296 0.3629
vn 0.1237 0.7415 0.6595
vn 0.3670 0.8627 0.3480
vn 0.0191 0.9269 0.3748
vn 0.0106 0.9506 0.3104
vn -0.0763 0.8425 0.5333
vn -0.4701 0.6004 0.6470
vn 0.1381 0.9745 -0.1767
vn 0.2144 0.2029 -0.9555
vn 0.4363 0.3792 -0.8160
vn -0.1704 0.2799 -0.9448
vn -0.7784 0.4967 -0.3839
vn -0.4091 0.4633 -0.7861
vn 0.8967 0.3294 -0.2958
vn -0.9608 0.2374 -0.1429
vn 0.9652 0.2503 0.0756
vn 0.0033 1.0000 -0.0035
vn 0.0332 0.8368 0.5464
vn 0.2048 0.3619 -0.9094
vn 0.7629 0.4268 -0.4857
vn 0.8582 0.4355 -0.2716
vn -0.1543 0.3367 -0.9289
vn -0.7724 0.4508 -0.4473
vn -0.4949 0.3889 -0.7771
vn -0.9564 0.1789 -0.2310
vn 0.8786 0.4743 0.0558
vn -0.8899 0.4561 -0.0098
vn 0.8070 0.4247 0.4103
vn 0.5062 0.3859 0.7713
vn 0.1730 0.3296 0.9281
vn -0.7574 0.4403 0.4823
vn -0.8118 0.4906 0.3168
vn 0.0417 0.9969 -0.0670
vn 0.0156 0.9482 -0.3173
vn 0.0162 0.9877 -0.1553
vn -0.0505 0.9954 -0.0810
vn 0.0457 0.9976 0.0517
vn -0.0129 0.9975 0.0694
vn -0.0320 0.9923 0.1193
g Mesh_0_Mesh_0_lambert2SG
usemtl lambert2SG
s off
f 47/1/1 48/2/1 49/3/1
f 47/1/1 49/3/1 50/4/1
f 51/5/2 52/6/2 53/7/2
f 51/5/2 53/7/2 54/8/2
f 55/9/3 56/10/3 57/11/3
f 55/9/3 57/11/3 58/12/3
f 59/13/4 60/14/4 61/15/4
f 59/13/4 61/15/4 62/16/4
f 63/17/5 64/18/5 65/19/5
f 63/17/5 65/19/5 66/20/5
f 67/21/6 68/22/6 69/23/6
f 67/21/6 69/23/6 70/24/6
f 71/25/1 72/26/1 73/27/1
f 71/25/1 73/27/1 74/28/1
f 75/29/2 76/30/2 77/31/2
f 75/29/2 77/31/2 78/32/2
f 79/33/3 80/34/3 81/35/3
f 79/33/3 81/35/3 82/36/3
f 83/37/4 84/38/4 85/39/4
f 83/37/4 85/39/4 86/40/4
f 87/41/5 88/42/5 89/43/5
f 87/41/5 89/43/5 90/44/5
f 91/45/6 92/46/6 93/47/6
f 91/45/6 93/47/6 94/48/6
f 95/49/1 96/50/1 97/51/1
f 95/49/1 97/51/1 98/52/1
f 99/53/2 100/54/2 101/55/2
f 99/53/2 101/55/2 102/56/2
f 103/57/3 104/58/3 105/59/3
f 103/57/3 105/59/3 106/60/3
f 107/61/4 108/62/4 109/63/4
f 107/61/4 109/63/4 110/64/4
f 111/65/5 112/66/5 113/67/5
f 111/65/5 113/67/5 114/68/5
f 115/69/6 116/70/6 117/71/6
f 115/69/6 117/71/6 118/72/6
f 119/73/1 120/74/1 121/75/1
f 119/73/1 121/75/1 122/76/1
f 123/77/2 124/78/2 125/79/2
f 123/77/2 125/79/2 126/80/2
f 196/81/3 198/82/3 197/83/3
f 196/81/3 199/84/3 198/82/3
f 200/85/5 202/86/5 201/87/5
f 200/85/5 203/88/5 202/86/5
f 204/89/1 205/90/1 206/91/1
f 207/92/1 204/89/1 206/91/1
f 208/93/2 210/94/2 211/95/2
f 208/93/2 211/95/2 209/96/2
s 1
f 1/97/7 2/98/7 3/99/8
f 1/97/7 3/99/8 4/100/9
f 5/101/10 6/102/11 7/103/12
f 5/101/10 7/103/12 8/104/13
f 5/101/10 8/104/13 9/105/14
f 9/105/14 8/104/13 10/106/15
f 9/105/14 10/106/15 11/107/16
f 12/108/17 13/109/18 6/102/11
f 12/108/17 6/102/11 5/101/10
f 14/110/19 15/111/20 16/112/21
f 14/110/19 16/112/21 17/113/22
f 17/113/22 16/112/21 18/114/23
f 17/113/22 18/114/23 19/115/24
f 19/115/24 18/114/23 20/116/25
f 21/117/26 22/118/26 23/119/27
f 21/117/26 23/119/27 24/120/27
f 19/115/24 20/116/25 25/121/28
f 19/115/24 25/121/28 26/122/29
f 29/123/30 30/124/31 31/125/32
f 29/123/30 31/125/32 32/126/33
f 32/126/33 31/125/32 33/127/34
f 32/126/33 33/127/34 34/128/35
f 35/129/36 36/130/36 30/124/31
f 35/129/36 30/124/31 29/123/30
f 39/131/37 40/132/38 41/133/39
f 39/131/37 41/133/39 42/134/40
f 42/134/40 41/133/39 43/135/41
f 42/134/40 43/135/41 44/136/42
f 45/137/43 46/138/43 40/132/38
f 45/137/43 40/132/38 39/131/37
f 129/139/44 127/140/45 130/141/46
f 130/141/46 127/140/45 131/142/47
f 130/141/46 131/142/47 132/143/48
f 191/144/49 134/145/50 137/146/51
f 138/147/52 136/148/53 146/149/54
f 137/146/51 139/150/55 140/151/56
f 143/152/57 144/153/58 145/154/59
f 143/152/57 145/154/59 146/149/54
f 166/155/60 144/153/58 142/156/61
f 171/157/62 154/158/63 170/159/64
f 175/160/65 174/161/66 176/162/67
f 176/162/67 174/161/66 177/163/68
f 179/164/69 172/165/70 171/157/62
f 178/166/71 180/167/72 181/168/73
f 184/169/74 182/170/75 183/171/76
f 185/172/77 182/170/75 184/169/74
f 186/173/78 187/174/79 182/170/75
f 181/168/73 169/175/80 187/174/79
f 127/140/45 129/139/44 128/176/81
f 129/139/44 149/177/82 147/178/83
f 129/139/44 147/178/83 128/176/81
f 149/177/82 129/139/44 130/141/46
f 130/141/46 150/179/84 149/177/82
f 132/143/48 133/180/85 151/181/86
f 151/181/86 150/179/84 130/141/46
f 151/181/86 130/141/46 132/143/48
f 128/176/81 147/178/83 148/182/87
f 148/182/87 134/145/50 128/176/81
f 134/145/50 127/140/45 128/176/81
f 131/142/47 136/148/53 132/143/48
f 136/148/53 135/183/88 133/180/85
f 136/148/53 133/180/85 132/143/48
f 134/145/50 148/182/87 152/184/89
f 134/145/50 191/144/49 127/140/45
f 136/148/53 131/142/47 190/185/90
f 136/148/53 138/147/52 135/183/88
f 134/145/50 152/184/89 139/150/55
f 134/145/50 139/150/55 137/146/51
f 136/148/53 190/185/90 146/149/54
f 146/149/54 145/154/59 138/147/52
f 140/151/56 142/156/61 141/186/91
f 140/151/56 141/186/91 137/146/51
f 141/186/91 191/144/49 137/146/51
f 141/186/91 190/185/90 191/144/49
f 142/156/61 144/153/58 143/152/57
f 142/156/61 143/152/57 141/186/91
f 143/152/57 190/185/90 141/186/91
f 190/185/90 143/152/57 146/149/54
f 149/177/82 156/187/92 154/158/63
f 149/177/82 154/158/63 147/178/83
f 154/158/63 153/188/93 147/178/83
f 148/182/87 147/178/83 153/188/93
f 153/188/93 155/189/94 148/182/87
f 157/190/95 156/187/92 149/177/82
f 150/179/84 157/190/95 149/177/82
f 151/181/86 133/180/85 159/191/96
f 159/191/96 158/192/97 151/181/86
f 158/192/97 157/190/95 150/179/84
f 158/192/97 150/179/84 151/181/86
f 135/183/88 160/193/98 133/180/85
f 160/193/98 159/191/96 133/180/85
f 148/182/87 155/189/94 161/194/99
f 148/182/87 161/194/99 152/184/89
f 138/147/52 162/195/100 135/183/88
f 162/195/100 160/193/98 135/183/88
f 140/151/56 139/150/55 165/196/101
f 165/196/101 164/197/102 140/151/56
f 164/197/102 163/198/103 142/156/61
f 164/197/102 142/156/61 140/151/56
f 152/184/89 161/194/99 165/196/101
f 152/184/89 165/196/101 139/150/55
f 142/156/61 163/198/103 166/155/60
f 138/147/52 145/154/59 168/199/104
f 168/199/104 167/200/105 138/147/52
f 167/200/105 162/195/100 138/147/52
f 144/153/58 166/155/60 169/175/80
f 144/153/58 169/175/80 145/154/59
f 169/175/80 168/199/104 145/154/59
f 156/187/92 170/159/64 154/158/63
f 153/188/93 154/158/63 172/165/70
f 153/188/93 172/165/70 155/189/94
f 156/187/92 174/161/66 170/159/64
f 174/161/66 156/187/92 157/190/95
f 159/191/96 177/163/68 158/192/97
f 177/163/68 174/161/66 157/190/95
f 177/163/68 157/190/95 158/192/97
f 160/193/98 162/195/100 159/191/96
f 162/195/100 180/167/72 177/163/68
f 162/195/100 177/163/68 159/191/96
f 155/189/94 172/165/70 161/194/99
f 167/200/105 180/167/72 162/195/100
f 165/196/101 183/171/76 164/197/102
f 183/171/76 182/170/75 163/198/103
f 183/171/76 163/198/103 164/197/102
f 161/194/99 172/165/70 183/171/76
f 161/194/99 183/171/76 165/196/101
f 182/170/75 166/155/60 163/198/103
f 182/170/75 187/174/79 166/155/60
f 168/199/104 169/175/80 180/167/72
f 168/199/104 180/167/72 167/200/105
f 166/155/60 187/174/79 169/175/80
f 188/201/106 171/157/62 170/159/64
f 172/165/70 154/158/63 171/157/62
f 173/202/107 189/203/108 170/159/64
f 189/203/108 188/201/106 170/159/64
f 170/159/64 174/161/66 173/202/107
f 174/161/66 175/160/65 173/202/107
f 175/160/65 189/203/108 173/202/107
f 192/204/109 175/160/65 176/162/67
f 177/163/68 178/166/71 176/162/67
f 178/166/71 192/204/109 176/162/67
f 177/163/68 180/167/72 178/166/71
f 188/201/106 179/164/69 171/157/62
f 192/204/109 178/166/71 181/168/73
f 183/171/76 179/164/69 184/169/74
f 179/164/69 193/205/110 184/169/74
f 183/171/76 172/165/70 179/164/69
f 184/169/74 193/205/110 194/206/111
f 194/206/111 185/172/77 184/169/74
f 182/170/75 185/172/77 186/173/78
f 185/172/77 194/206/111 186/173/78
f 186/173/78 195/207/112 187/174/79
f 180/167/72 169/175/80 181/168/73
f 195/207/112 181/168/73 187/174/79
f 189/203/108 175/160/65 192/204/109
f 189/203/108 192/204/109 188/201/106
f 192/204/109 181/168/73 195/207/112
f 192/204/109 195/207/112 188/201/106
f 195/207/112 186/173/78 194/206/111
f 195/207/112 194/206/111 188/201/106
f 194/206/111 193/205/110 188/201/106
f 193/205/110 179/164/69 188/201/106
l 27 28
l 37 38
