# Blender v2.90.1 OBJ File: ''
# www.blender.org
mtllib coffin.mtl
v -0.892668 0.087313 0.153626
v 0.131295 0.080385 -0.632514
v 0.314604 0.074743 -0.315306
v -0.892668 0.087313 0.153626
v 0.314604 0.074743 -0.315306
v -0.793508 0.084261 0.325220
v 0.656233 0.074390 -0.781398
v 0.772594 0.070809 -0.580040
v 0.314604 0.074743 -0.315306
v 0.656233 0.074390 -0.781398
v 0.314604 0.074743 -0.315306
v 0.131295 0.080385 -0.632514
v 0.314604 0.074743 -0.315306
v 0.497913 0.069101 0.001903
v -0.694347 0.081209 0.496814
v 0.314604 0.074743 -0.315306
v -0.694347 0.081209 0.496814
v -0.793508 0.084261 0.325220
v 0.888955 0.067228 -0.378682
v 0.497913 0.069101 0.001903
v 0.314604 0.074743 -0.315306
v 0.888955 0.067228 -0.378682
v 0.314604 0.074743 -0.315306
v 0.772594 0.070809 -0.580040
v -0.907131 0.452358 0.141145
v 0.133972 0.445506 -0.678092
v 0.131295 0.080385 -0.632514
v -0.892668 0.087313 0.153626
v 0.133972 0.445506 -0.678092
v 0.721576 0.438796 -0.844749
v 0.656233 0.074390 -0.781398
v 0.133972 0.445506 -0.678092
v 0.656233 0.074390 -0.781398
v 0.131295 0.080385 -0.632514
v 0.721576 0.438796 -0.844749
v 0.851828 0.434787 -0.619353
v 0.772594 0.070809 -0.580040
v 0.721576 0.438796 -0.844749
v 0.772594 0.070809 -0.580040
v 0.656233 0.074390 -0.781398
v 0.851828 0.434787 -0.619353
v 0.982079 0.430778 -0.393958
v 0.888955 0.067228 -0.378682
v 0.851828 0.434787 -0.619353
v 0.888955 0.067228 -0.378682
v 0.772594 0.070809 -0.580040
v 0.982079 0.430778 -0.393958
v 0.544355 0.432875 0.032060
v 0.497913 0.069101 0.001903
v 0.982079 0.430778 -0.393958
v 0.497913 0.069101 0.001903
v 0.888955 0.067228 -0.378682
v 0.544355 0.432875 0.032060
v -0.685134 0.445525 0.525301
v -0.694347 0.081209 0.496814
v 0.497913 0.069101 0.001903
v -0.685134 0.445525 0.525301
v -0.796132 0.448941 0.333223
v -0.793508 0.084261 0.325220
v -0.685134 0.445525 0.525301
v -0.793508 0.084261 0.325220
v -0.694347 0.081209 0.496814
v -0.796132 0.448941 0.333223
v -0.907131 0.452358 0.141145
v -0.892668 0.087313 0.153626
v -0.796132 0.448941 0.333223
v -0.892668 0.087313 0.153626
v -0.793508 0.084261 0.325220
v -0.853415 0.238382 0.203262
v -0.784413 0.236259 0.322668
v 0.321665 0.226758 -0.316682
v -0.853415 0.238382 0.203262
v 0.321665 0.226758 -0.316682
v 0.168669 0.231467 -0.581436
v 0.833775 0.220329 -0.401441
v 0.742261 0.223145 -0.559802
v 0.321665 0.226758 -0.316682
v 0.833775 0.220329 -0.401441
v 0.321665 0.226758 -0.316682
v 0.474660 0.222049 -0.051930
v 0.133972 0.445506 -0.678092
v -0.907131 0.452358 0.141145
v -0.792208 0.450513 0.163958
v 0.133972 0.445506 -0.678092
v -0.792208 0.450513 0.163958
v 0.174223 0.444166 -0.597950
v -0.907131 0.452358 0.141145
v -0.796132 0.448941 0.333223
v -0.719867 0.448286 0.289140
v -0.907131 0.452358 0.141145
v -0.719867 0.448286 0.289140
v -0.792208 0.450513 0.163958
v -0.796132 0.448941 0.333223
v -0.685134 0.445525 0.525301
v -0.647527 0.446060 0.414322
v -0.796132 0.448941 0.333223
v -0.647527 0.446060 0.414322
v -0.719867 0.448286 0.289140
v -0.685134 0.445525 0.525301
v 0.544355 0.432875 0.032060
v 0.495017 0.434292 -0.042829
v -0.685134 0.445525 0.525301
v 0.495017 0.434292 -0.042829
v -0.647527 0.446060 0.414322
v 0.544355 0.432875 0.032060
v 0.982079 0.430778 -0.393958
v 0.871504 0.432489 -0.409248
v 0.544355 0.432875 0.032060
v 0.871504 0.432489 -0.409248
v 0.495017 0.434292 -0.042829
v 0.982079 0.430778 -0.393958
v 0.851828 0.434787 -0.619353
v 0.775563 0.435442 -0.575270
v 0.982079 0.430778 -0.393958
v 0.775563 0.435442 -0.575270
v 0.871504 0.432489 -0.409248
v 0.851828 0.434787 -0.619353
v 0.721576 0.438796 -0.844749
v 0.679622 0.438395 -0.741292
v 0.851828 0.434787 -0.619353
v 0.679622 0.438395 -0.741292
v 0.775563 0.435442 -0.575270
v 0.721576 0.438796 -0.844749
v 0.133972 0.445506 -0.678092
v 0.174223 0.444166 -0.597950
v 0.721576 0.438796 -0.844749
v 0.174223 0.444166 -0.597950
v 0.679622 0.438395 -0.741292
v 0.174223 0.444166 -0.597950
v -0.792208 0.450513 0.163958
v -0.853415 0.238382 0.203262
v 0.168669 0.231467 -0.581436
v -0.792208 0.450513 0.163958
v -0.719867 0.448286 0.289140
v -0.784413 0.236259 0.322668
v -0.792208 0.450513 0.163958
v -0.784413 0.236259 0.322668
v -0.853415 0.238382 0.203262
v -0.719867 0.448286 0.289140
v -0.647527 0.446060 0.414322
v -0.715411 0.234135 0.442074
v -0.719867 0.448286 0.289140
v -0.715411 0.234135 0.442074
v -0.784413 0.236259 0.322668
v -0.647527 0.446060 0.414322
v 0.495017 0.434292 -0.042829
v 0.474660 0.222049 -0.051930
v -0.715411 0.234135 0.442074
v 0.495017 0.434292 -0.042829
v 0.871504 0.432489 -0.409248
v 0.833775 0.220329 -0.401441
v 0.495017 0.434292 -0.042829
v 0.833775 0.220329 -0.401441
v 0.474660 0.222049 -0.051930
v 0.871504 0.432489 -0.409248
v 0.775563 0.435442 -0.575270
v 0.742261 0.223145 -0.559802
v 0.871504 0.432489 -0.409248
v 0.742261 0.223145 -0.559802
v 0.833775 0.220329 -0.401441
v 0.775563 0.435442 -0.575270
v 0.679622 0.438395 -0.741292
v 0.650748 0.225962 -0.718163
v 0.775563 0.435442 -0.575270
v 0.650748 0.225962 -0.718163
v 0.742261 0.223145 -0.559802
v 0.679622 0.438395 -0.741292
v 0.174223 0.444166 -0.597950
v 0.168669 0.231467 -0.581436
v 0.679622 0.438395 -0.741292
v 0.168669 0.231467 -0.581436
v 0.650748 0.225962 -0.718163
v -0.715411 0.234135 0.442074
v 0.474660 0.222049 -0.051930
v 0.321665 0.226758 -0.316682
v -0.715411 0.234135 0.442074
v 0.321665 0.226758 -0.316682
v -0.784413 0.236259 0.322668
v 0.650748 0.225962 -0.718163
v 0.168669 0.231467 -0.581436
v 0.321665 0.226758 -0.316682
v 0.650748 0.225962 -0.718163
v 0.321665 0.226758 -0.316682
v 0.742261 0.223145 -0.559802
v -0.088849 0.084718 0.972082
v 0.644711 -0.071287 0.087989
v 0.671279 0.206312 0.101523
v -0.074477 0.234885 0.979404
v -0.074477 0.234885 0.979404
v -0.155948 0.241408 1.005559
v -0.171606 0.071487 0.997780
v -0.088849 0.084718 0.972082
v -0.060106 0.385054 0.986725
v -0.139346 0.411133 1.013721
v 0.979827 0.194812 -0.268280
v 0.980242 0.199058 -0.356194
v 0.999914 0.398275 -0.345979
v 0.996691 0.371027 -0.259689
v 0.644711 -0.071287 0.087989
v 0.607304 -0.102186 0.040677
v 0.961168 -0.000241 -0.365911
v 0.962962 0.018597 -0.276871
v 0.962962 0.018597 -0.276871
v 0.979827 0.194812 -0.268280
v 0.996691 0.371027 -0.259689
v 0.999914 0.398275 -0.345979
v 0.666804 0.525827 0.070791
v 0.697846 0.483912 0.115056
v -0.088849 0.084718 0.972082
v -0.171606 0.071487 0.997780
v 0.697846 0.483912 0.115056
v -0.060106 0.385054 0.986725
v 0.962962 0.018597 -0.276871
v 0.961168 -0.000241 -0.365911
v 0.996691 0.371027 -0.259689
v -0.346612 0.256274 1.074915
v -0.258145 0.245157 1.129261
v -0.237295 0.463015 1.139883
v -0.346612 0.256274 1.074915
v -0.237295 0.463015 1.139883
v -0.325500 0.476876 1.085670
v 0.531984 -0.185733 -0.044766
v 0.609522 -0.191351 0.023508
v -0.278995 0.027300 1.118640
v -0.367725 0.035672 1.064159
v 0.950275 0.207934 -0.479440
v 1.022610 0.197419 -0.405758
v 0.998143 -0.058227 -0.418221
v 0.950275 0.207934 -0.479440
v 0.998143 -0.058227 -0.418221
v 0.925500 -0.050932 -0.492061
v 0.610042 0.629875 -0.005002
v 0.686609 0.614112 0.062778
v 1.047077 0.453065 -0.393295
v 0.975050 0.466801 -0.466819
v 0.925500 -0.050932 -0.492061
v 0.998143 -0.058227 -0.418221
v -0.325500 0.476876 1.085670
v -0.237295 0.463015 1.139883
v -0.258145 0.245157 1.129261
v -0.278995 0.027300 1.118640
v -0.171606 0.071487 0.997780
v -0.155948 0.241408 1.005559
v -0.367725 0.035672 1.064159
v -0.278995 0.027300 1.118640
v -0.258145 0.245157 1.129261
v -0.367725 0.035672 1.064159
v -0.258145 0.245157 1.129261
v -0.346612 0.256274 1.074915
v 0.975050 0.466801 -0.466819
v 1.047077 0.453065 -0.393295
v 1.022610 0.197419 -0.405758
v 0.975050 0.466801 -0.466819
v 1.022610 0.197419 -0.405758
v 0.950275 0.207934 -0.479440
v 1.022610 0.197419 -0.405758
v 1.047077 0.453065 -0.393295
v 0.999914 0.398275 -0.345979
v 0.980242 0.199058 -0.356194
v 0.975050 0.466801 -0.466819
v 0.950275 0.207934 -0.479440
v 0.571371 0.222057 -0.025312
v 0.975050 0.466801 -0.466819
v 0.571371 0.222057 -0.025312
v 0.610042 0.629875 -0.005002
v 0.961168 -0.000241 -0.365911
v 0.998143 -0.058227 -0.418221
v -0.139346 0.411133 1.013721
v -0.237295 0.463015 1.139883
v 0.609522 -0.191351 0.023508
v 0.607304 -0.102186 0.040677
v 0.686609 0.614112 0.062778
v 0.666804 0.525827 0.070791
v 0.925500 -0.050932 -0.492061
v 0.531984 -0.185733 -0.044766
v 0.571371 0.222057 -0.025312
v 0.925500 -0.050932 -0.492061
v 0.571371 0.222057 -0.025312
v 0.950275 0.207934 -0.479440
v -0.346612 0.256274 1.074915
v -0.325500 0.476876 1.085670
v 0.610042 0.629875 -0.005002
v -0.346612 0.256274 1.074915
v 0.610042 0.629875 -0.005002
v 0.571371 0.222057 -0.025312
v 0.531984 -0.185733 -0.044766
v -0.367725 0.035672 1.064159
v -0.346612 0.256274 1.074915
v 0.531984 -0.185733 -0.044766
v -0.346612 0.256274 1.074915
v 0.571371 0.222057 -0.025312
v -0.139346 0.411133 1.013721
v -0.060106 0.385054 0.986725
vt 0.367495 0.657353
vt 0.586348 0.686113
vt 0.586348 0.623462
vt 0.367495 0.657353
vt 0.586348 0.623462
vt 0.367495 0.623462
vt 0.676801 0.663232
vt 0.676801 0.623462
vt 0.586348 0.623462
vt 0.676801 0.663232
vt 0.586348 0.623462
vt 0.586348 0.686113
vt 0.586348 0.623462
vt 0.586348 0.560812
vt 0.367495 0.589572
vt 0.586348 0.623462
vt 0.367495 0.589572
vt 0.367495 0.623462
vt 0.676801 0.583693
vt 0.586348 0.623462
vt 0.676801 0.623462
vt 0.891021 0.529588
vt 0.987873 0.527295
vt 0.973494 0.464768
vt 0.891021 0.529588
vt 0.973494 0.464768
vt 0.886971 0.466817
vt 0.721217 0.995000
vt 0.765734 0.995000
vt 0.765734 0.930954
vt 0.721217 0.995000
vt 0.765734 0.930954
vt 0.725964 0.930954
vt 0.765734 0.995000
vt 0.810251 0.995000
vt 0.805503 0.930954
vt 0.765734 0.995000
vt 0.805503 0.930954
vt 0.765734 0.930954
vt 0.797090 0.856381
vt 0.759154 0.856382
vt 0.759155 0.918754
vt 0.797090 0.856381
vt 0.759155 0.918754
vt 0.793046 0.918753
vt 0.759154 0.856382
vt 0.721217 0.856383
vt 0.725264 0.918755
vt 0.759154 0.856382
vt 0.725264 0.918755
vt 0.759155 0.918754
vt 0.005000 0.155624
vt 0.005000 0.179207
vt 0.223451 0.179207
vt 0.005000 0.155624
vt 0.223451 0.179207
vt 0.223451 0.126917
vt 0.306519 0.210485
vt 0.223451 0.179207
vt 0.223451 0.231498
vt 0.229221 0.389329
vt 0.020062 0.434735
vt 0.228324 0.404639
vt 0.005000 0.421522
vt 0.005000 0.459459
vt 0.020062 0.459459
vt 0.005000 0.421522
vt 0.020062 0.459459
vt 0.020062 0.434735
vt 0.005000 0.459459
vt 0.005000 0.497395
vt 0.020062 0.484183
vt 0.005000 0.459459
vt 0.020062 0.484183
vt 0.020062 0.459459
vt 0.005000 0.497395
vt 0.228324 0.514279
vt 0.020062 0.484183
vt 0.229221 0.529588
vt 0.330473 0.503976
vt 0.315411 0.492249
vt 0.229221 0.529588
vt 0.315411 0.492249
vt 0.228324 0.514279
vt 0.330473 0.503976
vt 0.330473 0.459459
vt 0.315411 0.459459
vt 0.330473 0.503976
vt 0.315411 0.459459
vt 0.315411 0.492249
vt 0.330473 0.459459
vt 0.330473 0.414942
vt 0.315411 0.426669
vt 0.330473 0.459459
vt 0.315411 0.426669
vt 0.315411 0.459459
vt 0.330473 0.414942
vt 0.229221 0.389329
vt 0.228324 0.404639
vt 0.822450 0.995000
vt 0.847174 0.995000
vt 0.847174 0.956673
vt 0.822450 0.995000
vt 0.847174 0.956673
vt 0.823591 0.956673
vt 0.847174 0.995000
vt 0.871898 0.995000
vt 0.870757 0.956672
vt 0.227498 0.110652
vt 0.310764 0.110129
vt 0.304748 0.073754
vt 0.227498 0.110652
vt 0.304748 0.073754
vt 0.225324 0.074253
vt 0.090353 0.439843
vt 0.057563 0.439844
vt 0.057563 0.476682
vt 0.090353 0.439843
vt 0.057563 0.476682
vt 0.088840 0.476682
vt 0.057563 0.439844
vt 0.024772 0.439844
vt 0.026285 0.476682
vt 0.057563 0.439844
vt 0.026285 0.476682
vt 0.057563 0.476682
vt 0.992670 0.336507
vt 0.909404 0.335984
vt 0.907230 0.372383
vt 0.992670 0.336507
vt 0.907230 0.372383
vt 0.986654 0.372881
vt 0.005000 0.202791
vt 0.223451 0.231498
vt 0.223451 0.179207
vt 0.005000 0.202791
vt 0.223451 0.179207
vt 0.005000 0.179207
vt 0.306519 0.147930
vt 0.223451 0.126917
vt 0.223451 0.179207
vt 0.258056 0.460839
vt 0.256528 0.443051
vt 0.219201 0.446258
vt 0.258056 0.460839
vt 0.219201 0.446258
vt 0.220259 0.464087
vt 0.070516 0.597642
vt 0.070008 0.615381
vt 0.113953 0.616640
vt 0.070516 0.597642
vt 0.113953 0.616640
vt 0.115015 0.598917
vt 0.295853 0.457592
vt 0.293855 0.439843
vt 0.256528 0.443051
vt 0.295853 0.457592
vt 0.256528 0.443051
vt 0.258056 0.460839
vt 0.026018 0.596368
vt 0.026063 0.614123
vt 0.070008 0.615381
vt 0.026018 0.596368
vt 0.070008 0.615381
vt 0.070516 0.597642
vt 0.352552 0.815326
vt 0.250670 0.772497
vt 0.251740 0.842618
vt 0.351073 0.726305
vt 0.249409 0.702378
vt 0.250670 0.772497
vt 0.351073 0.726305
vt 0.250670 0.772497
vt 0.351812 0.770815
vt 0.005630 0.776570
vt 0.006261 0.814501
vt 0.251740 0.842618
vt 0.005630 0.776570
vt 0.251740 0.842618
vt 0.250670 0.772497
vt 0.249409 0.702378
vt 0.005000 0.738639
vt 0.005630 0.776570
vt 0.249409 0.702378
vt 0.005630 0.776570
vt 0.250670 0.772497
vt 0.676801 0.583693
vt 0.586348 0.560812
vt 0.586348 0.623462
vt 0.664523 0.526706
vt 0.891021 0.529588
vt 0.886971 0.466817
vt 0.666256 0.464242
vt 0.644691 0.152656
vt 0.540307 0.149217
vt 0.536356 0.212010
vt 0.644691 0.152656
vt 0.536356 0.212010
vt 0.629608 0.215082
vt 0.540307 0.149217
vt 0.330571 0.153540
vt 0.331001 0.215871
vt 0.536356 0.212010
vt 0.306519 0.210485
vt 0.306519 0.179207
vt 0.223451 0.179207
vt 0.229221 0.389329
vt 0.005000 0.421522
vt 0.020062 0.434735
vt 0.005000 0.497395
vt 0.229221 0.529588
vt 0.228324 0.514279
vt 0.330473 0.414942
vt 0.228324 0.404639
vt 0.315411 0.426669
vt 0.909404 0.335984
vt 0.698984 0.336698
vt 0.686906 0.373064
vt 0.907230 0.372383
vt 0.847174 0.995000
vt 0.870757 0.956672
vt 0.847174 0.956673
vt 0.017078 0.109938
vt 0.227498 0.110652
vt 0.225324 0.074253
vt 0.005000 0.073572
vt 0.306519 0.147930
vt 0.223451 0.179207
vt 0.306519 0.179207
vt 0.668960 0.902879
vt 0.472287 0.878090
vt 0.471590 0.925823
vt 0.668583 0.928700
vt 0.668583 0.928700
vt 0.681033 0.928882
vt 0.681458 0.899678
vt 0.668960 0.902879
vt 0.668206 0.954521
vt 0.680553 0.958070
vt 0.389229 0.924621
vt 0.377749 0.924453
vt 0.377247 0.958723
vt 0.388786 0.954921
vt 0.772161 0.121899
vt 0.769757 0.110565
vt 0.676779 0.122936
vt 0.688692 0.132952
vt 0.389671 0.894321
vt 0.389229 0.924621
vt 0.978964 0.686113
vt 0.991007 0.676384
vt 0.898255 0.662420
vt 0.895667 0.673827
vt 0.963010 0.130243
vt 0.974809 0.121786
vt 0.470893 0.973557
vt 0.668206 0.954521
vt 0.389671 0.894321
vt 0.378250 0.890184
vt 0.388786 0.954921
vt 0.427638 0.074925
vt 0.427933 0.092614
vt 0.671917 0.096231
vt 0.674695 0.078588
vt 0.560205 0.111630
vt 0.559359 0.129301
vt 0.662436 0.132952
vt 0.664580 0.115327
vt 0.330571 0.075247
vt 0.332074 0.092931
vt 0.330571 0.108430
vt 0.332582 0.126140
vt 0.708471 0.929282
vt 0.709018 0.891822
vt 0.681458 0.899678
vt 0.681033 0.928882
vt 0.366598 0.924290
vt 0.365956 0.968249
vt 0.377247 0.958723
vt 0.377749 0.924453
vt 0.352552 0.815326
vt 0.351812 0.770815
vt 0.250670 0.772497
vt 0.378250 0.890184
vt 0.367240 0.880332
vt 0.680553 0.958070
vt 0.707924 0.966743
vt 0.467586 0.856500
vt 0.470223 0.871806
vt 0.465564 0.995000
vt 0.468648 0.979778
vt 0.693067 0.670613
vt 0.704674 0.679317
vn -0.0141 -0.9999 -0.0096
vn -0.2722 -0.1172 -0.9551
vn 0.8396 -0.2356 -0.4894
vn -0.8658 -0.0172 0.5000
vn 0.0141 0.9999 0.0096
vn 0.8166 -0.3241 -0.4777
vn 0.8166 -0.3241 -0.4776
vn -0.6939 0.0971 -0.7135
vn -0.8520 0.1697 0.4953
vn 0.2730 0.0674 0.9597
vn -0.5226 0.0085 0.8525
vn 0.7108 -0.0338 -0.7026
vn -0.5227 0.0085 0.8525
vn -0.7621 0.1041 -0.6391
vn -0.6124 -0.0725 -0.7872
vn 0.6895 -0.1468 0.7092
vn 0.3749 -0.1029 0.9213
vn 0.6140 0.0072 0.7893
vn 0.6139 0.0072 0.7893
vn -0.3770 0.0377 -0.9255
vn 0.7563 -0.1039 0.6459
vn 0.7591 -0.1040 0.6426
vn 0.7592 -0.1040 0.6425
vn 0.3010 -0.0740 0.9508
vn 0.3011 -0.0741 0.9507
vn 0.3030 -0.0732 0.9502
vn 0.3030 -0.0733 0.9502
vn 0.4228 0.4920 0.7610
vn 0.4185 0.4512 0.7882
vn 0.9954 -0.0962 0.0015
vn 0.9953 -0.0970 0.0032
vn 0.9953 -0.0970 0.0033
vn 0.3535 -0.8891 0.2908
vn 0.3747 -0.8867 0.2708
vn 0.4598 -0.8686 0.1846
vn 0.7621 -0.1041 0.6391
vn 0.6135 0.7444 0.2637
vn 0.6134 0.7444 0.2636
vn 0.5307 0.7717 0.3504
vn 0.5100 0.7765 0.3702
vn 0.2600 -0.8906 0.3730
vn 0.2599 -0.8907 0.3730
vn 0.9955 -0.0953 0.0001
vn -0.0170 -0.9979 -0.0628
vn -0.0206 -0.9981 -0.0588
vn -0.1428 -0.9864 0.0810
vn 0.1727 0.9844 0.0339
vn 0.1692 0.9849 0.0379
vn 0.2901 0.9510 -0.1065
vn 0.1059 -0.9740 -0.2004
vn 0.0457 0.9831 0.1771
vn 0.7643 -0.1033 0.6365
vn 0.7633 -0.1026 0.6379
vn 0.7627 -0.1034 0.6385
vn 0.7642 -0.1034 0.6367
vn 0.7564 -0.1047 0.6456
vn 0.7596 -0.1071 0.6415
vn 0.7595 -0.1070 0.6416
vn 0.7582 -0.1015 0.6440
vn 0.7585 -0.1013 0.6437
vn 0.7631 -0.1092 0.6370
vn 0.7638 -0.1062 0.6367
vn 0.7622 -0.1014 0.6394
vn 0.7622 -0.1018 0.6393
vn 0.7611 -0.1105 0.6391
vn 0.7613 -0.1108 0.6389
g Object001_Object001_mtl_0_Object001_Object001_mtl_0_Object001_mtl
usemtl Object001_mtl
s off
f 1/1/1 2/2/1 3/3/1
f 4/4/1 5/5/1 6/6/1
f 7/7/1 8/8/1 9/9/1
f 10/10/1 11/11/1 12/12/1
f 13/13/1 14/14/1 15/15/1
f 16/16/1 17/17/1 18/18/1
f 22/19/1 23/20/1 24/21/1
f 29/22/2 30/23/2 31/24/2
f 32/25/2 33/26/2 34/27/2
f 35/28/3 36/29/3 37/30/3
f 38/31/3 39/32/3 40/33/3
f 41/34/3 42/35/3 43/36/3
f 44/37/3 45/38/3 46/39/3
f 57/40/4 58/41/4 59/42/4
f 60/43/4 61/44/4 62/45/4
f 63/46/4 64/47/4 65/48/4
f 66/49/4 67/50/4 68/51/4
f 69/52/5 70/53/5 71/54/5
f 72/55/5 73/56/5 74/57/5
f 78/58/5 79/59/5 80/60/5
f 84/61/5 85/62/5 86/63/5
f 87/64/5 88/65/5 89/66/5
f 90/67/5 91/68/5 92/69/5
f 93/70/5 94/71/5 95/72/5
f 96/73/5 97/74/5 98/75/5
f 102/76/5 103/77/5 104/78/5
f 105/79/5 106/80/5 107/81/5
f 108/82/5 109/83/5 110/84/5
f 111/85/5 112/86/5 113/87/5
f 114/88/5 115/89/5 116/90/5
f 117/91/5 118/92/5 119/93/5
f 120/94/5 121/95/5 122/96/5
f 123/97/5 124/98/5 125/99/5
f 133/100/6 134/101/6 135/102/6
f 136/103/7 137/104/7 138/105/7
f 139/106/7 140/107/7 141/108/7
f 149/109/8 150/110/8 151/111/8
f 152/112/8 153/113/8 154/114/8
f 155/115/9 156/116/9 157/117/9
f 158/118/9 159/119/9 160/120/9
f 161/121/9 162/122/9 163/123/9
f 164/124/9 165/125/9 166/126/9
f 167/127/10 168/128/10 169/129/10
f 170/130/10 171/131/10 172/132/10
f 173/133/5 174/134/5 175/135/5
f 176/136/5 177/137/5 178/138/5
f 179/139/5 180/140/5 181/141/5
f 216/142/11 217/143/11 218/144/11
f 219/145/11 220/146/11 221/147/11
f 226/148/12 227/149/12 228/150/12
f 229/151/12 230/152/12 231/153/12
f 244/154/13 245/155/13 246/156/13
f 247/157/11 248/158/11 249/159/11
f 250/160/12 251/161/12 252/162/12
f 253/163/12 254/164/12 255/165/12
f 263/166/14 264/167/14 265/168/14
f 274/169/14 275/170/14 276/171/14
f 277/172/14 278/173/14 279/174/14
f 280/175/14 281/176/14 282/177/14
f 283/178/14 284/179/14 285/180/14
f 286/181/14 287/182/14 288/183/14
f 289/184/14 290/185/14 291/186/14
s 1
f 19/187/1 20/188/1 21/189/1
f 25/190/15 26/191/15 27/192/15
f 25/190/15 27/192/15 28/193/15
f 47/194/16 48/195/16 49/196/16
f 50/197/16 51/198/16 52/199/16
f 53/200/17 54/201/17 55/202/17
f 53/200/17 55/202/17 56/203/17
f 75/204/5 76/205/5 77/206/5
f 81/207/5 82/208/5 83/209/5
f 99/210/5 100/211/5 101/212/5
f 126/213/5 127/214/5 128/215/5
f 129/216/18 130/217/18 131/218/19
f 129/216/18 131/218/19 132/219/18
f 142/220/7 143/221/7 144/222/7
f 145/223/20 146/224/20 147/225/20
f 145/223/20 147/225/20 148/226/20
f 182/227/5 183/228/5 184/229/5
f 185/230/21 186/231/22 187/232/23
f 185/230/21 187/232/23 188/233/21
f 189/234/24 190/235/25 191/236/26
f 189/234/24 191/236/26 192/237/27
f 193/238/28 194/239/29 190/235/25
f 193/238/28 190/235/25 189/234/24
f 195/240/30 196/241/30 197/242/31
f 195/240/30 197/242/31 198/243/32
f 199/244/33 200/245/34 201/246/35
f 199/244/33 201/246/35 202/247/35
f 203/248/36 204/249/36 187/232/23
f 203/248/36 187/232/23 186/231/22
f 205/250/37 206/251/38 207/252/39
f 205/250/37 207/252/39 208/253/40
f 209/254/41 210/255/42 200/245/34
f 209/254/41 200/245/34 199/244/33
f 187/232/23 211/256/22 212/257/21
f 187/232/23 212/257/21 188/233/21
f 213/258/43 214/259/43 196/241/30
f 213/258/43 196/241/30 195/240/30
f 215/260/36 211/256/22 187/232/23
f 215/260/36 187/232/23 204/249/36
f 222/261/44 223/262/45 224/263/46
f 222/261/44 224/263/46 225/264/46
f 232/265/47 233/266/48 234/267/49
f 232/265/47 234/267/49 235/268/49
f 236/269/50 237/270/50 223/262/45
f 236/269/50 223/262/45 222/261/44
f 238/271/51 239/272/51 233/266/48
f 238/271/51 233/266/48 232/265/47
f 240/273/52 241/274/53 242/275/54
f 240/273/52 242/275/54 243/276/55
f 256/277/56 257/278/57 258/279/58
f 256/277/56 258/279/58 259/280/56
f 260/281/14 261/282/14 262/283/14
f 256/277/56 259/280/56 266/284/59
f 256/277/56 266/284/59 267/285/60
f 240/273/52 243/276/55 268/286/61
f 240/273/52 268/286/61 269/287/62
f 242/275/54 241/274/53 270/288/63
f 242/275/54 270/288/63 271/289/64
f 270/288/63 267/285/60 266/284/59
f 270/288/63 266/284/59 271/289/64
f 258/279/58 257/278/57 272/290/65
f 258/279/58 272/290/65 273/291/66
f 273/291/66 272/290/65 269/287/62
f 273/291/66 269/287/62 268/286/61
f 207/252/39 292/292/29 293/293/28
f 207/252/39 293/293/28 208/253/40
