# Blender v2.90.1 OBJ File: ''
# www.blender.org
mtllib stairs_bar.mtl
v 0.435298 -0.011335 0.445257
v -0.462132 -0.011335 0.445257
v -0.462132 -0.099664 0.445257
v 0.435298 -0.099664 0.445257
v -0.462132 -0.021456 0.457588
v -0.462132 -0.021456 0.309393
v 0.435298 -0.021456 0.309393
v 0.435298 -0.021456 0.457588
v -0.462132 0.001547 0.457588
v 0.435298 0.001547 0.457588
v 0.435298 0.001547 0.309393
v -0.462132 0.001547 0.309393
v 0.435298 -0.021456 0.309393
v -0.462132 -0.021456 0.309393
v -0.462132 0.001547 0.309393
v 0.435298 0.001547 0.309393
v -0.462132 -0.021456 0.457588
v 0.435298 -0.021456 0.457588
v 0.435298 0.001547 0.457588
v -0.462132 0.001547 0.457588
v 0.435298 0.089876 0.311881
v -0.462132 0.089876 0.311881
v -0.462132 0.001547 0.311881
v 0.435298 0.001547 0.311881
v -0.462132 0.079755 0.324212
v -0.462132 0.079755 0.176018
v 0.435298 0.079755 0.176018
v 0.435298 0.079755 0.324212
v -0.462132 0.102757 0.324212
v 0.435298 0.102757 0.324212
v 0.435298 0.102757 0.176018
v -0.462132 0.102757 0.176018
v 0.435298 0.079755 0.176018
v -0.462132 0.079755 0.176018
v -0.462132 0.102757 0.176018
v 0.435298 0.102757 0.176018
v -0.462132 0.079755 0.324212
v 0.435298 0.079755 0.324212
v 0.435298 0.102757 0.324212
v -0.462132 0.102757 0.324212
v 0.435298 0.191087 0.178506
v -0.462132 0.191087 0.178506
v -0.462132 0.102757 0.178506
v 0.435298 0.102757 0.178506
v -0.462132 0.180966 0.190837
v -0.462132 0.180966 0.042642
v 0.435298 0.180966 0.042642
v 0.435298 0.180966 0.190837
v -0.462132 0.203968 0.190837
v 0.435298 0.203968 0.190837
v 0.435298 0.203968 0.042642
v -0.462132 0.203968 0.042642
v 0.435298 0.180966 0.042642
v -0.462132 0.180966 0.042642
v -0.462132 0.203968 0.042642
v 0.435298 0.203968 0.042642
v -0.462132 0.180966 0.190837
v 0.435298 0.180966 0.190837
v 0.435298 0.203968 0.190837
v -0.462132 0.203968 0.190837
v 0.435298 0.292298 0.045130
v -0.462132 0.292298 0.045130
v -0.462132 0.203968 0.045130
v 0.435298 0.203968 0.045130
v -0.462132 0.282176 0.057462
v -0.462132 0.282176 -0.090733
v 0.435298 0.282176 -0.090733
v 0.435298 0.282176 0.057462
v -0.462132 0.305179 0.057462
v 0.435298 0.305179 0.057462
v 0.435298 0.305179 -0.090733
v -0.462132 0.305179 -0.090733
v 0.435298 0.282176 -0.090733
v -0.462132 0.282176 -0.090733
v -0.462132 0.305179 -0.090733
v 0.435298 0.305179 -0.090733
v -0.462132 0.282176 0.057462
v 0.435298 0.282176 0.057462
v 0.435298 0.305179 0.057462
v -0.462132 0.305179 0.057462
v 0.435298 0.393509 -0.088245
v -0.462132 0.393509 -0.088245
v -0.462132 0.305179 -0.088245
v 0.435298 0.305179 -0.088245
v -0.462132 0.383387 -0.075914
v -0.462132 0.383387 -0.224109
v 0.435298 0.383387 -0.224109
v 0.435298 0.383387 -0.075914
v -0.462132 0.406390 -0.075914
v 0.435298 0.406390 -0.075914
v 0.435298 0.406390 -0.224109
v -0.462132 0.406390 -0.224109
v 0.435298 0.383387 -0.224109
v -0.462132 0.383387 -0.224109
v -0.462132 0.406390 -0.224109
v 0.435298 0.406390 -0.224109
v -0.462132 0.383387 -0.075914
v 0.435298 0.383387 -0.075914
v 0.435298 0.406390 -0.075914
v -0.462132 0.406390 -0.075914
v 0.435298 0.494719 -0.221620
v -0.462132 0.494719 -0.221620
v -0.462132 0.406390 -0.221620
v 0.435298 0.406390 -0.221620
v -0.462132 0.484598 -0.209289
v -0.462132 0.484598 -0.357484
v 0.435298 0.484598 -0.357484
v 0.435298 0.484598 -0.209289
v -0.462132 0.507601 -0.209289
v 0.435298 0.507601 -0.209289
v 0.435298 0.507601 -0.357484
v -0.462132 0.507601 -0.357484
v 0.435298 0.484598 -0.357484
v -0.462132 0.484598 -0.357484
v -0.462132 0.507601 -0.357484
v 0.435298 0.507601 -0.357484
v -0.462132 0.484598 -0.209289
v 0.435298 0.484598 -0.209289
v 0.435298 0.507601 -0.209289
v -0.462132 0.507601 -0.209289
v 0.435298 0.595930 -0.354996
v -0.462132 0.595930 -0.354996
v -0.462132 0.507601 -0.354996
v 0.435298 0.507601 -0.354996
v -0.462132 0.585809 -0.342665
v -0.462132 0.585809 -0.490860
v 0.435298 0.585809 -0.490860
v 0.435298 0.585809 -0.342665
v -0.462132 0.608811 -0.342665
v 0.435298 0.608811 -0.342665
v 0.435298 0.608811 -0.490860
v -0.462132 0.608811 -0.490860
v 0.435298 0.585809 -0.490860
v -0.462132 0.585809 -0.490860
v -0.462132 0.608811 -0.490860
v 0.435298 0.608811 -0.490860
v -0.462132 0.585809 -0.342665
v 0.435298 0.585809 -0.342665
v 0.435298 0.608811 -0.342665
v -0.462132 0.608811 -0.342665
v 0.431168 0.635237 -0.360374
v 0.483847 0.635237 -0.360374
v 0.483847 0.635237 -0.564985
v 0.431168 0.635237 -0.564985
v 0.431168 -0.072988 0.572303
v 0.431168 -0.072988 0.367691
v 0.483847 -0.072988 0.367691
v 0.483847 -0.072988 0.572303
v 0.483847 0.635237 -0.564985
v 0.483847 -0.072988 0.367691
v 0.431168 -0.072988 0.367691
v 0.431168 0.635237 -0.564985
v 0.431168 0.635237 -0.360374
v 0.431168 -0.072988 0.572303
v 0.483847 -0.072988 0.572303
v 0.483847 0.635237 -0.360374
v 0.483847 0.635237 -0.360374
v 0.483847 -0.072988 0.572303
v 0.483847 -0.072988 0.367691
v 0.483847 0.635237 -0.564985
v 0.431168 0.635237 -0.564985
v 0.431168 -0.072988 0.367691
v 0.431168 -0.072988 0.572303
v 0.431168 0.635237 -0.360374
v -0.511159 0.635234 -0.360374
v -0.458479 0.635234 -0.360374
v -0.458479 0.635234 -0.564985
v -0.511159 0.635234 -0.564985
v -0.511159 -0.072990 0.572303
v -0.511159 -0.072990 0.367691
v -0.458479 -0.072990 0.367691
v -0.458479 -0.072989 0.572303
v -0.458479 0.635234 -0.564985
v -0.458479 -0.072990 0.367691
v -0.511159 -0.072990 0.367691
v -0.511159 0.635234 -0.564985
v -0.511159 0.635234 -0.360374
v -0.511159 -0.072990 0.572303
v -0.458479 -0.072989 0.572303
v -0.458479 0.635234 -0.360374
v -0.458479 0.635234 -0.360374
v -0.458479 -0.072989 0.572303
v -0.458479 -0.072990 0.367691
v -0.458479 0.635234 -0.564985
v -0.511159 0.635234 -0.564985
v -0.511159 -0.072990 0.367691
v -0.511159 -0.072990 0.572303
v -0.511159 0.635234 -0.360374
vt 0.215203 0.838666
vt 0.215203 0.895584
vt 0.593959 0.895584
vt 0.593959 0.838666
vt 0.058780 0.849061
vt 0.117103 0.849061
vt 0.117103 0.782086
vt 0.058780 0.782086
vt 0.497682 0.116095
vt 0.497682 0.004590
vt 0.004542 0.004590
vt 0.004541 0.116095
vt 0.277614 0.984574
vt 0.277614 0.995201
vt 0.549158 0.995201
vt 0.549158 0.984574
vt 0.276294 0.995201
vt 0.276294 0.984574
vt 0.004751 0.984574
vt 0.004751 0.995201
vt 0.511615 0.343339
vt 0.511615 0.400469
vt 0.891777 0.400469
vt 0.891777 0.343339
vt 0.117515 0.849061
vt 0.175838 0.849061
vt 0.175838 0.782086
vt 0.117515 0.782086
vt 0.499047 0.340990
vt 0.499047 0.233619
vt 0.005906 0.233619
vt 0.005906 0.340990
vt 0.276294 0.973947
vt 0.276294 0.963320
vt 0.004751 0.963320
vt 0.004751 0.973947
vt 0.276294 0.984574
vt 0.276294 0.973947
vt 0.004751 0.973947
vt 0.004751 0.984574
vt 0.593959 0.838666
vt 0.593959 0.895584
vt 0.972715 0.895584
vt 0.972715 0.838666
vt 0.059057 0.593370
vt 0.117380 0.593370
vt 0.117380 0.526395
vt 0.059057 0.526395
vt 0.993818 0.115970
vt 0.993818 0.008599
vt 0.500678 0.008599
vt 0.500677 0.115970
vt 0.276960 0.940282
vt 0.276960 0.929655
vt 0.005416 0.929655
vt 0.005416 0.940282
vt 0.549158 0.973947
vt 0.549158 0.963321
vt 0.277614 0.963321
vt 0.277614 0.973947
vt 0.513690 0.402458
vt 0.513690 0.459315
vt 0.892040 0.459315
vt 0.892040 0.402458
vt 0.901866 0.492239
vt 0.960189 0.492239
vt 0.960189 0.425264
vt 0.901866 0.425264
vt 0.497908 0.456630
vt 0.497908 0.349259
vt 0.004767 0.349259
vt 0.004767 0.456630
vt 0.276960 0.919028
vt 0.276960 0.908402
vt 0.005416 0.908401
vt 0.005416 0.919028
vt 0.276960 0.929655
vt 0.276960 0.919029
vt 0.005416 0.919028
vt 0.005416 0.929655
vt 0.593959 0.781747
vt 0.593959 0.838665
vt 0.972715 0.838666
vt 0.972715 0.781747
vt 0.901115 0.416680
vt 0.959438 0.416680
vt 0.959438 0.349705
vt 0.901115 0.349705
vt 0.994745 0.343114
vt 0.994746 0.235744
vt 0.501605 0.235744
vt 0.501605 0.343114
vt 0.276294 0.963320
vt 0.276294 0.952694
vt 0.004751 0.952693
vt 0.004751 0.963320
vt 0.549158 0.963321
vt 0.549158 0.952694
vt 0.277614 0.952694
vt 0.277614 0.963321
vt 0.595651 0.927192
vt 0.595651 0.984255
vt 0.975376 0.984255
vt 0.975376 0.927192
vt 0.000457 0.849061
vt 0.058780 0.849061
vt 0.058780 0.782086
vt 0.000457 0.782086
vt 0.499538 0.231609
vt 0.499538 0.124239
vt 0.006398 0.124239
vt 0.006398 0.231609
vt 0.005416 0.940282
vt 0.005416 0.950908
vt 0.276960 0.950908
vt 0.276960 0.940282
vt 0.549158 0.984574
vt 0.549158 0.973948
vt 0.277614 0.973948
vt 0.277614 0.984574
vt 0.215203 0.781747
vt 0.215203 0.838665
vt 0.593959 0.838666
vt 0.593959 0.781747
vt 0.000734 0.593370
vt 0.059057 0.593370
vt 0.059057 0.526395
vt 0.000734 0.526395
vt 0.992679 0.231609
vt 0.992679 0.124239
vt 0.499538 0.124239
vt 0.499539 0.231609
vt 0.276960 0.908401
vt 0.276960 0.897775
vt 0.005416 0.897775
vt 0.005416 0.908401
vt 0.549158 0.952694
vt 0.549158 0.942067
vt 0.277614 0.942067
vt 0.277614 0.952694
vt 0.999170 0.779075
vt 0.821102 0.779073
vt 0.821102 0.720832
vt 0.999170 0.720834
vt 0.000000 0.720832
vt 0.000000 0.664890
vt 0.178069 0.664889
vt 0.178069 0.720830
vt 0.999171 0.664890
vt 0.999171 0.720832
vt 0.178069 0.720830
vt 0.178069 0.664889
vt 0.821102 0.720832
vt 0.821102 0.779073
vt 0.000000 0.779074
vt 0.000000 0.720832
vt 1.000000 0.558511
vt 0.823466 0.664889
vt 0.000000 0.664887
vt 0.176533 0.558510
vt 0.823467 0.460183
vt 1.000000 0.558506
vt 0.176533 0.558510
vt 0.000000 0.460187
vt 0.999170 0.720832
vt 0.821102 0.720831
vt 0.821102 0.664889
vt 0.999170 0.664890
vt 0.000000 0.779075
vt 0.000000 0.720834
vt 0.178069 0.720832
vt 0.178069 0.779073
vt 0.999171 0.720833
vt 0.999171 0.779074
vt 0.178069 0.779073
vt 0.178069 0.720832
vt 0.821102 0.664889
vt 0.821102 0.720831
vt 0.000000 0.720831
vt 0.000000 0.664889
vt 1.000000 0.558510
vt 0.823466 0.664888
vt 0.000000 0.664889
vt 0.176533 0.558511
vt 0.823467 0.460183
vt 1.000000 0.558506
vt 0.176533 0.558510
vt 0.000000 0.460187
vn 0.0000 0.0000 1.0000
vn 0.0000 -1.0000 0.0000
vn 0.0000 1.0000 0.0000
vn 0.0000 0.0000 -1.0000
vn 0.0000 -0.7964 -0.6048
vn 0.0000 0.7964 0.6048
vn 1.0000 -0.0000 0.0000
vn -1.0000 0.0000 0.0000
g defaultMaterial_defaultMaterial_stairs_AH
usemtl stairs_AH
s off
f 4/1/1 1/2/1 2/3/1
f 2/3/1 3/4/1 4/1/1
f 8/5/2 5/6/2 6/7/2
f 6/7/2 7/8/2 8/5/2
f 12/9/3 9/10/3 10/11/3
f 10/11/3 11/12/3 12/9/3
f 16/13/4 13/14/4 14/15/4
f 14/15/4 15/16/4 16/13/4
f 20/17/1 17/18/1 18/19/1
f 18/19/1 19/20/1 20/17/1
f 24/21/1 21/22/1 22/23/1
f 22/23/1 23/24/1 24/21/1
f 28/25/2 25/26/2 26/27/2
f 26/27/2 27/28/2 28/25/2
f 32/29/3 29/30/3 30/31/3
f 30/31/3 31/32/3 32/29/3
f 36/33/4 33/34/4 34/35/4
f 34/35/4 35/36/4 36/33/4
f 40/37/1 37/38/1 38/39/1
f 38/39/1 39/40/1 40/37/1
f 44/41/1 41/42/1 42/43/1
f 42/43/1 43/44/1 44/41/1
f 48/45/2 45/46/2 46/47/2
f 46/47/2 47/48/2 48/45/2
f 52/49/3 49/50/3 50/51/3
f 50/51/3 51/52/3 52/49/3
f 56/53/4 53/54/4 54/55/4
f 54/55/4 55/56/4 56/53/4
f 60/57/1 57/58/1 58/59/1
f 58/59/1 59/60/1 60/57/1
f 64/61/1 61/62/1 62/63/1
f 62/63/1 63/64/1 64/61/1
f 68/65/2 65/66/2 66/67/2
f 66/67/2 67/68/2 68/65/2
f 72/69/3 69/70/3 70/71/3
f 70/71/3 71/72/3 72/69/3
f 76/73/4 73/74/4 74/75/4
f 74/75/4 75/76/4 76/73/4
f 80/77/1 77/78/1 78/79/1
f 78/79/1 79/80/1 80/77/1
f 84/81/1 81/82/1 82/83/1
f 82/83/1 83/84/1 84/81/1
f 88/85/2 85/86/2 86/87/2
f 86/87/2 87/88/2 88/85/2
f 92/89/3 89/90/3 90/91/3
f 90/91/3 91/92/3 92/89/3
f 96/93/4 93/94/4 94/95/4
f 94/95/4 95/96/4 96/93/4
f 100/97/1 97/98/1 98/99/1
f 98/99/1 99/100/1 100/97/1
f 104/101/1 101/102/1 102/103/1
f 102/103/1 103/104/1 104/101/1
f 108/105/2 105/106/2 106/107/2
f 106/107/2 107/108/2 108/105/2
f 112/109/3 109/110/3 110/111/3
f 110/111/3 111/112/3 112/109/3
f 116/113/4 113/114/4 114/115/4
f 114/115/4 115/116/4 116/113/4
f 120/117/1 117/118/1 118/119/1
f 118/119/1 119/120/1 120/117/1
f 124/121/1 121/122/1 122/123/1
f 122/123/1 123/124/1 124/121/1
f 128/125/2 125/126/2 126/127/2
f 126/127/2 127/128/2 128/125/2
f 132/129/3 129/130/3 130/131/3
f 130/131/3 131/132/3 132/129/3
f 136/133/4 133/134/4 134/135/4
f 134/135/4 135/136/4 136/133/4
f 140/137/1 137/138/1 138/139/1
f 138/139/1 139/140/1 140/137/1
f 144/141/3 141/142/3 142/143/3
f 142/143/3 143/144/3 144/141/3
f 148/145/2 145/146/2 146/147/2
f 146/147/2 147/148/2 148/145/2
f 152/149/5 149/150/5 150/151/5
f 150/151/5 151/152/5 152/149/5
f 156/153/6 153/154/6 154/155/6
f 154/155/6 155/156/6 156/153/6
f 160/157/7 157/158/7 158/159/7
f 158/159/7 159/160/7 160/157/7
f 164/161/8 161/162/8 162/163/8
f 162/163/8 163/164/8 164/161/8
f 168/165/3 165/166/3 166/167/3
f 166/167/3 167/168/3 168/165/3
f 172/169/2 169/170/2 170/171/2
f 170/171/2 171/172/2 172/169/2
f 176/173/5 173/174/5 174/175/5
f 174/175/5 175/176/5 176/173/5
f 180/177/6 177/178/6 178/179/6
f 178/179/6 179/180/6 180/177/6
f 184/181/7 181/182/7 182/183/7
f 182/183/7 183/184/7 184/181/7
f 188/185/8 185/186/8 186/187/8
f 186/187/8 187/188/8 188/185/8
