# Blender v2.90.1 OBJ File: ''
# www.blender.org
mtllib table.mtl
v 0.733586 0.390016 0.333785
v -0.795731 0.390016 0.333785
v -0.795731 0.390016 -0.333379
v 0.733586 0.390016 -0.333379
v 0.733586 0.458406 -0.333379
v -0.795731 0.458406 -0.333379
v -0.795731 0.458406 0.333785
v 0.733586 0.458406 0.333785
v 0.733586 0.390016 0.482493
v 0.733586 0.458406 0.482493
v -0.795731 0.458406 0.482493
v -0.795731 0.390016 0.482493
v 0.910571 0.408712 -0.333379
v 0.910571 0.427780 -0.333379
v 0.910571 0.427780 0.333785
v 0.910571 0.408712 0.333785
v -0.795731 0.390016 -0.482087
v -0.795731 0.458406 -0.482087
v 0.733586 0.458406 -0.482087
v 0.733586 0.390016 -0.482087
v -0.972715 0.408712 0.333785
v -0.972715 0.427780 0.333785
v -0.972715 0.427780 -0.333379
v -0.972715 0.408712 -0.333379
v 0.891875 0.390016 0.333785
v 0.837445 0.390016 0.333785
v 0.837445 0.390016 -0.333379
v 0.891875 0.390016 -0.333379
v -0.954019 0.390016 -0.333379
v -0.899589 0.390016 -0.333379
v -0.899589 0.390016 0.333785
v -0.954019 0.390016 0.333785
v 0.879945 0.458406 -0.333379
v 0.837445 0.458406 -0.333379
v 0.837445 0.458406 0.333785
v 0.879945 0.458406 0.333785
v -0.942090 0.458406 0.333785
v -0.899589 0.458406 0.333785
v -0.899589 0.458406 -0.333379
v -0.942090 0.458406 -0.333379
v 0.837445 0.390016 0.482493
v 0.891875 0.390016 0.482493
v 0.905897 0.394690 0.482493
v 0.910571 0.408712 0.482493
v 0.910571 0.427780 0.482493
v 0.902915 0.450749 0.482493
v 0.879945 0.458406 0.482493
v 0.837445 0.458406 0.482493
v -0.899589 0.458406 0.482493
v -0.942090 0.458406 0.482493
v -0.965059 0.450749 0.482493
v -0.972715 0.427780 0.482493
v -0.972715 0.408712 0.482493
v -0.968041 0.394690 0.482493
v -0.954019 0.390016 0.482493
v -0.899589 0.390016 0.482493
v -0.899589 0.390016 -0.482087
v -0.954019 0.390016 -0.482087
v -0.968041 0.394690 -0.482087
v -0.972715 0.408712 -0.482087
v -0.972715 0.427780 -0.482087
v -0.965059 0.450749 -0.482087
v -0.942090 0.458406 -0.482087
v -0.899589 0.458406 -0.482087
v 0.837445 0.458406 -0.482087
v 0.879945 0.458406 -0.482087
v 0.902915 0.450749 -0.482087
v 0.910571 0.427780 -0.482087
v 0.910571 0.408712 -0.482087
v 0.905897 0.394690 -0.482087
v 0.891875 0.390016 -0.482087
v 0.837445 0.390016 -0.482087
v 0.733586 0.390016 0.482493
v -0.795731 0.390016 0.482493
v -0.795731 0.390016 0.427335
v 0.733586 0.390016 0.427335
v -0.795731 0.390016 -0.482087
v 0.733586 0.390016 -0.482087
v 0.733586 0.390016 -0.426930
v -0.795731 0.390016 -0.426930
v 0.733586 0.458406 -0.482087
v -0.795731 0.458406 -0.482087
v -0.795731 0.458406 -0.426930
v 0.733586 0.458406 -0.426930
v -0.795731 0.458406 0.482493
v 0.733586 0.458406 0.482493
v 0.733586 0.458406 0.427335
v -0.795731 0.458406 0.427335
v 0.910571 0.408712 -0.482087
v 0.910571 0.427780 -0.482087
v 0.910571 0.427780 -0.426930
v 0.910571 0.408712 -0.426930
v 0.910571 0.427780 0.482493
v 0.910571 0.408712 0.482493
v 0.910571 0.408712 0.427335
v 0.910571 0.427780 0.427335
v -0.972715 0.408712 0.482493
v -0.972715 0.427780 0.482493
v -0.972715 0.427780 0.427335
v -0.972715 0.408712 0.427335
v -0.972715 0.427780 -0.482087
v -0.972715 0.408712 -0.482087
v -0.972715 0.408712 -0.426930
v -0.972715 0.427780 -0.426930
v 0.891875 0.390016 0.482493
v 0.837445 0.390016 0.482493
v 0.837445 0.390016 0.427335
v 0.891875 0.390016 0.427335
v 0.837445 0.390016 -0.482087
v 0.891875 0.390016 -0.482087
v 0.891875 0.390016 -0.426930
v 0.837445 0.390016 -0.426930
v 0.837445 -0.024172 0.427335
v 0.733586 -0.024172 0.427335
v 0.733586 -0.024172 0.333785
v 0.837445 -0.024172 0.333785
v 0.733586 -0.024172 -0.426930
v 0.837445 -0.024172 -0.426930
v 0.837445 -0.024172 -0.333379
v 0.733586 -0.024172 -0.333379
v -0.954019 0.390016 -0.482087
v -0.899589 0.390016 -0.482087
v -0.899589 0.390016 -0.426930
v -0.954019 0.390016 -0.426930
v -0.899589 0.390016 0.482493
v -0.954019 0.390016 0.482493
v -0.954019 0.390016 0.427335
v -0.899589 0.390016 0.427335
v -0.899589 -0.024172 -0.426930
v -0.795731 -0.024172 -0.426930
v -0.795731 -0.024172 -0.333379
v -0.899589 -0.024172 -0.333379
v -0.795731 -0.024172 0.427335
v -0.899589 -0.024172 0.427335
v -0.899589 -0.024172 0.333785
v -0.795731 -0.024172 0.333785
v 0.879945 0.458406 -0.482087
v 0.837445 0.458406 -0.482087
v 0.837445 0.458406 -0.426930
v 0.879945 0.458406 -0.426930
v 0.837445 0.458406 0.482493
v 0.879945 0.458406 0.482493
v 0.879945 0.458406 0.427335
v 0.837445 0.458406 0.427335
v -0.942090 0.458406 0.482493
v -0.899589 0.458406 0.482493
v -0.899589 0.458406 0.427335
v -0.942090 0.458406 0.427335
v -0.899589 0.458406 -0.482087
v -0.942090 0.458406 -0.482087
v -0.942090 0.458406 -0.426930
v -0.899589 0.458406 -0.426930
v 0.837445 0.390016 0.333785
v 0.837445 0.390016 0.427335
v 0.837445 -0.024172 0.427335
v 0.837445 -0.024172 0.333785
v 0.837445 0.390016 0.427335
v 0.733586 0.390016 0.427335
v 0.733586 -0.024172 0.427335
v 0.837445 -0.024172 0.427335
v 0.733586 0.390016 0.427335
v 0.733586 0.390016 0.333785
v 0.733586 -0.024172 0.333785
v 0.733586 -0.024172 0.427335
v 0.733586 0.390016 0.333785
v 0.837445 0.390016 0.333785
v 0.837445 -0.024172 0.333785
v 0.733586 -0.024172 0.333785
v 0.837445 0.390016 -0.426930
v 0.837445 0.390016 -0.333379
v 0.837445 -0.024172 -0.333379
v 0.837445 -0.024172 -0.426930
v 0.837445 0.390016 -0.333379
v 0.733586 0.390016 -0.333379
v 0.733586 -0.024172 -0.333379
v 0.837445 -0.024172 -0.333379
v 0.733586 0.390016 -0.333379
v 0.733586 0.390016 -0.426930
v 0.733586 -0.024172 -0.426930
v 0.733586 -0.024172 -0.333379
v 0.733586 0.390016 -0.426930
v 0.837445 0.390016 -0.426930
v 0.837445 -0.024172 -0.426930
v 0.733586 -0.024172 -0.426930
v -0.899589 0.390016 -0.333379
v -0.899589 0.390016 -0.426930
v -0.899589 -0.024172 -0.426930
v -0.899589 -0.024172 -0.333379
v -0.899589 0.390016 -0.426930
v -0.795731 0.390016 -0.426930
v -0.795731 -0.024172 -0.426930
v -0.899589 -0.024172 -0.426930
v -0.795731 0.390016 -0.426930
v -0.795731 0.390016 -0.333379
v -0.795731 -0.024172 -0.333379
v -0.795731 -0.024172 -0.426930
v -0.795731 0.390016 -0.333379
v -0.899589 0.390016 -0.333379
v -0.899589 -0.024172 -0.333379
v -0.795731 -0.024172 -0.333379
v -0.899589 0.390016 0.427335
v -0.899589 0.390016 0.333785
v -0.899589 -0.024172 0.333785
v -0.899589 -0.024172 0.427335
v -0.899589 0.390016 0.333785
v -0.795731 0.390016 0.333785
v -0.795731 -0.024172 0.333785
v -0.899589 -0.024172 0.333785
v -0.795731 0.390016 0.333785
v -0.795731 0.390016 0.427335
v -0.795731 -0.024172 0.427335
v -0.795731 -0.024172 0.333785
v -0.795731 0.390016 0.427335
v -0.899589 0.390016 0.427335
v -0.899589 -0.024172 0.427335
v -0.795731 -0.024172 0.427335
v -0.965059 0.450749 -0.426930
v -0.965059 0.450749 -0.482087
v -0.965059 0.450749 -0.333379
v -0.965059 0.450749 0.333785
v -0.965059 0.450749 0.427335
v -0.965059 0.450749 0.482493
v -0.965059 0.450749 -0.426930
v -0.965059 0.450749 -0.482087
v -0.965059 0.450749 -0.333379
v -0.965059 0.450749 0.333785
v -0.965059 0.450749 0.427335
v -0.965059 0.450749 0.482493
v 0.902915 0.450749 0.427335
v 0.902915 0.450749 0.482493
v 0.902915 0.450749 0.333785
v 0.902915 0.450749 -0.333379
v 0.902915 0.450749 -0.426930
v 0.902915 0.450749 -0.482087
v 0.902915 0.450749 0.427335
v 0.902915 0.450749 0.482493
v 0.902915 0.450749 0.333785
v 0.902915 0.450749 -0.333379
v 0.902915 0.450749 -0.426930
v 0.902915 0.450749 -0.482087
v -0.968041 0.394690 0.427335
v -0.968041 0.394690 0.482493
v -0.968041 0.394690 0.333785
v -0.968041 0.394690 -0.333379
v -0.968041 0.394690 -0.426930
v -0.968041 0.394690 -0.482087
v -0.968041 0.394690 0.427335
v -0.968041 0.394690 0.482493
v -0.968041 0.394690 0.333785
v -0.968041 0.394690 -0.333379
v -0.968041 0.394690 -0.426930
v -0.968041 0.394690 -0.482087
v 0.905897 0.394690 -0.426930
v 0.905897 0.394690 -0.482087
v 0.905897 0.394690 -0.333379
v 0.905897 0.394690 0.333785
v 0.905897 0.394690 0.427335
v 0.905897 0.394690 0.482493
v 0.905897 0.394690 -0.426930
v 0.905897 0.394690 -0.482087
v 0.905897 0.394690 -0.333379
v 0.905897 0.394690 0.333785
v 0.905897 0.394690 0.427335
v 0.905897 0.394690 0.482493
vt 0.098589 0.935627
vt 0.755458 0.935627
vt 0.755458 0.649068
vt 0.098589 0.649069
vt 0.098589 0.491949
vt 0.755458 0.491949
vt 0.755458 0.205390
vt 0.098589 0.205390
vt 0.098589 0.112143
vt 0.098589 0.141517
vt 0.755458 0.141517
vt 0.755458 0.112143
vt 0.755458 0.585196
vt 0.755458 0.555821
vt 0.098589 0.555821
vt 0.098589 0.585196
vt 0.053980 0.935627
vt 0.053980 0.649069
vt 0.800067 0.649068
vt 0.800067 0.935627
vt 0.053980 0.491949
vt 0.053980 0.205390
vt 0.800067 0.205390
vt 0.800067 0.491949
vt 0.053980 0.112143
vt 0.030601 0.112143
vt 0.024578 0.114151
vt 0.022571 0.120173
vt 0.022571 0.128363
vt 0.025859 0.139873
vt 0.035725 0.141517
vt 0.053980 0.141517
vt 0.800067 0.141517
vt 0.818322 0.141517
vt 0.828187 0.139873
vt 0.831476 0.128363
vt 0.831476 0.120173
vt 0.829468 0.114151
vt 0.823446 0.112143
vt 0.800067 0.112143
vt 0.800067 0.585196
vt 0.823446 0.585196
vt 0.829468 0.583188
vt 0.831476 0.577166
vt 0.831476 0.568976
vt 0.828187 0.557466
vt 0.818322 0.555821
vt 0.800067 0.555821
vt 0.053980 0.555821
vt 0.035725 0.555821
vt 0.025859 0.557466
vt 0.022571 0.568976
vt 0.022571 0.577166
vt 0.024578 0.583188
vt 0.030601 0.585196
vt 0.053980 0.585196
vt 0.098589 0.999500
vt 0.755458 0.999500
vt 0.755458 0.975809
vt 0.098589 0.975809
vt 0.755458 0.585196
vt 0.098589 0.585196
vt 0.098589 0.608887
vt 0.755458 0.608887
vt 0.098589 0.555821
vt 0.755458 0.555821
vt 0.755458 0.532131
vt 0.098589 0.532131
vt 0.755458 0.141517
vt 0.098589 0.141517
vt 0.098589 0.165208
vt 0.755458 0.165208
vt 0.053980 0.999500
vt 0.053980 0.975809
vt 0.830024 0.321626
vt 0.830024 0.366207
vt 0.870181 0.366208
vt 0.870181 0.321626
vt 0.053980 0.585196
vt 0.053980 0.608887
vt 0.830024 0.321626
vt 0.830024 0.366207
vt 0.870181 0.366208
vt 0.870181 0.321626
vt 0.800067 0.585196
vt 0.800067 0.608887
vt 0.830024 0.321626
vt 0.830024 0.366207
vt 0.870181 0.366208
vt 0.870181 0.321626
vt 0.800067 0.999500
vt 0.800067 0.975809
vt 0.830024 0.321626
vt 0.830024 0.366207
vt 0.870181 0.366208
vt 0.870181 0.321626
vt 0.053980 0.555821
vt 0.053980 0.532131
vt 0.053980 0.141517
vt 0.053980 0.165208
vt 0.800067 0.141517
vt 0.800067 0.165208
vt 0.800067 0.555821
vt 0.800067 0.532131
vt 0.954919 0.143836
vt 0.914762 0.143836
vt 0.914762 0.321626
vt 0.954919 0.321626
vt 0.914762 0.143836
vt 0.870181 0.143836
vt 0.870181 0.321626
vt 0.914762 0.321626
vt 0.870181 0.143836
vt 0.830024 0.143836
vt 0.830024 0.321626
vt 0.870181 0.321626
vt 0.999500 0.143836
vt 0.954919 0.143836
vt 0.954919 0.321626
vt 0.999500 0.321626
vt 0.954919 0.143836
vt 0.914762 0.143836
vt 0.914762 0.321626
vt 0.954919 0.321626
vt 0.914762 0.143836
vt 0.870181 0.143836
vt 0.870181 0.321626
vt 0.914762 0.321626
vt 0.870181 0.143836
vt 0.830024 0.143836
vt 0.830024 0.321626
vt 0.870181 0.321626
vt 0.999500 0.143836
vt 0.954919 0.143836
vt 0.954919 0.321626
vt 0.999500 0.321626
vt 0.954919 0.143836
vt 0.914762 0.143836
vt 0.914762 0.321626
vt 0.954919 0.321626
vt 0.914762 0.143836
vt 0.870181 0.143836
vt 0.870181 0.321626
vt 0.914762 0.321626
vt 0.870181 0.143836
vt 0.830024 0.143836
vt 0.830024 0.321626
vt 0.870181 0.321626
vt 0.999500 0.143836
vt 0.954919 0.143836
vt 0.954919 0.321626
vt 0.999500 0.321626
vt 0.954919 0.143836
vt 0.914762 0.143836
vt 0.914762 0.321626
vt 0.954919 0.321626
vt 0.914762 0.143836
vt 0.870181 0.143836
vt 0.870181 0.321626
vt 0.914762 0.321626
vt 0.870181 0.143836
vt 0.830024 0.143836
vt 0.830024 0.321626
vt 0.870181 0.321626
vt 0.999500 0.143836
vt 0.954919 0.143836
vt 0.954919 0.321626
vt 0.999500 0.321626
vt 0.018556 0.649069
vt 0.010366 0.649069
vt 0.010366 0.935627
vt 0.018556 0.935627
vt 0.835491 0.935627
vt 0.843681 0.935627
vt 0.843681 0.649069
vt 0.835491 0.649069
vt 0.030601 0.935627
vt 0.030601 0.649069
vt 0.823446 0.649068
vt 0.823446 0.935627
vt 0.035725 0.491949
vt 0.035725 0.205390
vt 0.818322 0.205390
vt 0.818322 0.491949
vt 0.018556 0.585196
vt 0.010366 0.585196
vt 0.010366 0.608887
vt 0.018556 0.608887
vt 0.010366 0.999500
vt 0.018556 0.999500
vt 0.018556 0.975809
vt 0.010366 0.975809
vt 0.835491 0.999500
vt 0.843681 0.999500
vt 0.843681 0.975809
vt 0.835491 0.975809
vt 0.843681 0.585196
vt 0.835491 0.585196
vt 0.835491 0.608887
vt 0.843681 0.608887
vt 0.030601 0.999500
vt 0.030601 0.975809
vt 0.030601 0.585196
vt 0.030601 0.608887
vt 0.823446 0.585196
vt 0.823446 0.608887
vt 0.823446 0.999500
vt 0.823446 0.975809
vt 0.035725 0.555821
vt 0.035725 0.532131
vt 0.035725 0.141517
vt 0.035725 0.165208
vt 0.818322 0.141517
vt 0.818322 0.165208
vt 0.818322 0.555821
vt 0.818322 0.532131
vt 0.828187 0.532131
vt 0.828187 0.557466
vt 0.828187 0.491949
vt 0.828187 0.205390
vt 0.828187 0.165208
vt 0.828187 0.139873
vt 0.853547 0.608887
vt 0.853547 0.585196
vt 0.853547 0.649069
vt 0.853547 0.935627
vt 0.853547 0.975809
vt 0.853547 0.999500
vt 0.025859 0.165208
vt 0.025859 0.139873
vt 0.025859 0.205390
vt 0.025859 0.491949
vt 0.025859 0.532131
vt 0.025859 0.557466
vt 0.000500 0.975809
vt 0.000500 0.999500
vt 0.000500 0.935627
vt 0.000500 0.649069
vt 0.000500 0.608887
vt 0.000500 0.585196
vt 0.829468 0.975809
vt 0.829468 0.999500
vt 0.829468 0.935627
vt 0.829468 0.649068
vt 0.829468 0.608887
vt 0.829468 0.585196
vt 0.829468 0.975809
vt 0.829468 0.999500
vt 0.829468 0.935627
vt 0.829468 0.649068
vt 0.829468 0.608887
vt 0.829468 0.585196
vt 0.024578 0.608887
vt 0.024578 0.585196
vt 0.024578 0.649069
vt 0.024578 0.935627
vt 0.024578 0.975809
vt 0.024578 0.999500
vt 0.024578 0.608887
vt 0.024578 0.585196
vt 0.024578 0.649069
vt 0.024578 0.935627
vt 0.024578 0.975809
vt 0.024578 0.999500
vn -0.0000 -1.0000 0.0000
vn -0.0000 1.0000 -0.0000
vn 0.0000 0.0000 1.0000
vn 0.0000 -0.0000 -1.0000
vn 1.0000 -0.0000 0.0000
vn -1.0000 0.0000 0.0000
vn 0.9871 -0.1602 0.0000
vn 0.9871 0.1602 -0.0000
vn -0.9871 -0.1602 0.0000
vn -0.9871 0.1602 -0.0000
vn 0.1602 -0.9871 0.0000
vn -0.1602 -0.9871 0.0000
vn 0.1602 0.9871 -0.0000
vn -0.1602 0.9871 -0.0000
vn -0.3162 0.9487 0.0000
vn -0.9487 0.3162 -0.0000
vn 0.3162 0.9487 0.0000
vn 0.9487 0.3162 -0.0000
vn -0.3162 -0.9487 0.0000
vn -0.9487 -0.3162 0.0000
vn 0.3162 -0.9487 0.0000
vn 0.9487 -0.3162 0.0000
g Box073__0_Box073__0_Scene_-_Root
usemtl Scene_-_Root
s off
f 1/1/1 2/2/1 3/3/1
f 3/3/1 4/4/1 1/1/1
f 5/5/2 6/6/2 7/7/2
f 7/7/2 8/8/2 5/5/2
f 9/9/3 10/10/3 11/11/3
f 11/11/3 12/12/3 9/9/3
f 17/13/4 18/14/4 19/15/4
f 19/15/4 20/16/4 17/13/4
f 26/17/1 1/1/1 4/4/1
f 4/4/1 27/18/1 26/17/1
f 30/19/1 3/3/1 2/2/1
f 2/2/1 31/20/1 30/19/1
f 34/21/2 5/5/2 8/8/2
f 8/8/2 35/22/2 34/21/2
f 38/23/2 7/7/2 6/6/2
f 6/6/2 39/24/2 38/23/2
f 41/25/3 42/26/3 43/27/3
f 41/25/3 43/27/3 44/28/3
f 44/28/3 45/29/3 46/30/3
f 44/28/3 46/30/3 47/31/3
f 44/28/3 47/31/3 48/32/3
f 41/25/3 44/28/3 48/32/3
f 41/25/3 48/32/3 10/10/3
f 10/10/3 9/9/3 41/25/3
f 49/33/3 50/34/3 51/35/3
f 49/33/3 51/35/3 52/36/3
f 52/36/3 53/37/3 54/38/3
f 52/36/3 54/38/3 55/39/3
f 52/36/3 55/39/3 56/40/3
f 49/33/3 52/36/3 56/40/3
f 49/33/3 56/40/3 12/12/3
f 12/12/3 11/11/3 49/33/3
f 57/41/4 58/42/4 59/43/4
f 57/41/4 59/43/4 60/44/4
f 60/44/4 61/45/4 62/46/4
f 60/44/4 62/46/4 63/47/4
f 60/44/4 63/47/4 64/48/4
f 57/41/4 60/44/4 64/48/4
f 57/41/4 64/48/4 18/14/4
f 18/14/4 17/13/4 57/41/4
f 65/49/4 66/50/4 67/51/4
f 65/49/4 67/51/4 68/52/4
f 68/52/4 69/53/4 70/54/4
f 68/52/4 70/54/4 71/55/4
f 68/52/4 71/55/4 72/56/4
f 65/49/4 68/52/4 72/56/4
f 65/49/4 72/56/4 20/16/4
f 20/16/4 19/15/4 65/49/4
f 73/57/1 74/58/1 75/59/1
f 75/59/1 76/60/1 73/57/1
f 76/60/1 75/59/1 2/2/1
f 2/2/1 1/1/1 76/60/1
f 77/61/1 78/62/1 79/63/1
f 79/63/1 80/64/1 77/61/1
f 80/64/1 79/63/1 4/4/1
f 4/4/1 3/3/1 80/64/1
f 81/65/2 82/66/2 83/67/2
f 83/67/2 84/68/2 81/65/2
f 84/68/2 83/67/2 6/6/2
f 6/6/2 5/5/2 84/68/2
f 85/69/2 86/70/2 87/71/2
f 87/71/2 88/72/2 85/69/2
f 88/72/2 87/71/2 8/8/2
f 8/8/2 7/7/2 88/72/2
f 106/73/1 73/57/1 76/60/1
f 76/60/1 107/74/1 106/73/1
f 113/75/1 114/76/1 115/77/1
f 115/77/1 116/78/1 113/75/1
f 78/62/1 109/79/1 112/80/1
f 112/80/1 79/63/1 78/62/1
f 117/81/1 118/82/1 119/83/1
f 119/83/1 120/84/1 117/81/1
f 122/85/1 77/61/1 80/64/1
f 80/64/1 123/86/1 122/85/1
f 129/87/1 130/88/1 131/89/1
f 131/89/1 132/90/1 129/87/1
f 74/58/1 125/91/1 128/92/1
f 128/92/1 75/59/1 74/58/1
f 133/93/1 134/94/1 135/95/1
f 135/95/1 136/96/1 133/93/1
f 138/97/2 81/65/2 84/68/2
f 84/68/2 139/98/2 138/97/2
f 139/98/2 84/68/2 5/5/2
f 5/5/2 34/21/2 139/98/2
f 86/70/2 141/99/2 144/100/2
f 144/100/2 87/71/2 86/70/2
f 87/71/2 144/100/2 35/22/2
f 35/22/2 8/8/2 87/71/2
f 146/101/2 85/69/2 88/72/2
f 88/72/2 147/102/2 146/101/2
f 147/102/2 88/72/2 7/7/2
f 7/7/2 38/23/2 147/102/2
f 82/66/2 149/103/2 152/104/2
f 152/104/2 83/67/2 82/66/2
f 83/67/2 152/104/2 39/24/2
f 39/24/2 6/6/2 83/67/2
f 153/105/5 154/106/5 155/107/5
f 155/107/5 156/108/5 153/105/5
f 157/109/3 158/110/3 159/111/3
f 159/111/3 160/112/3 157/109/3
f 161/113/6 162/114/6 163/115/6
f 163/115/6 164/116/6 161/113/6
f 165/117/4 166/118/4 167/119/4
f 167/119/4 168/120/4 165/117/4
f 169/121/5 170/122/5 171/123/5
f 171/123/5 172/124/5 169/121/5
f 173/125/3 174/126/3 175/127/3
f 175/127/3 176/128/3 173/125/3
f 177/129/6 178/130/6 179/131/6
f 179/131/6 180/132/6 177/129/6
f 181/133/4 182/134/4 183/135/4
f 183/135/4 184/136/4 181/133/4
f 185/137/6 186/138/6 187/139/6
f 187/139/6 188/140/6 185/137/6
f 189/141/4 190/142/4 191/143/4
f 191/143/4 192/144/4 189/141/4
f 193/145/5 194/146/5 195/147/5
f 195/147/5 196/148/5 193/145/5
f 197/149/3 198/150/3 199/151/3
f 199/151/3 200/152/3 197/149/3
f 201/153/6 202/154/6 203/155/6
f 203/155/6 204/156/6 201/153/6
f 205/157/4 206/158/4 207/159/4
f 207/159/4 208/160/4 205/157/4
f 209/161/5 210/162/5 211/163/5
f 211/163/5 212/164/5 209/161/5
f 213/165/3 214/166/3 215/167/3
f 215/167/3 216/168/3 213/165/3
s 1
f 13/169/7 14/170/8 15/171/8
f 15/171/8 16/172/7 13/169/7
f 21/173/9 22/174/10 23/175/10
f 23/175/10 24/176/9 21/173/9
f 25/177/11 26/17/1 27/18/1
f 27/18/1 28/178/11 25/177/11
f 29/179/12 30/19/1 31/20/1
f 31/20/1 32/180/12 29/179/12
f 33/181/13 34/21/2 35/22/2
f 35/22/2 36/182/13 33/181/13
f 37/183/14 38/23/2 39/24/2
f 39/24/2 40/184/14 37/183/14
f 89/185/7 90/186/8 91/187/8
f 91/187/8 92/188/7 89/185/7
f 92/188/7 91/187/8 14/170/8
f 14/170/8 13/169/7 92/188/7
f 93/189/8 94/190/7 95/191/7
f 95/191/7 96/192/8 93/189/8
f 96/192/8 95/191/7 16/172/7
f 16/172/7 15/171/8 96/192/8
f 97/193/9 98/194/10 99/195/10
f 99/195/10 100/196/9 97/193/9
f 100/196/9 99/195/10 22/174/10
f 22/174/10 21/173/9 100/196/9
f 101/197/10 102/198/9 103/199/9
f 103/199/9 104/200/10 101/197/10
f 104/200/10 103/199/9 24/176/9
f 24/176/9 23/175/10 104/200/10
f 105/201/11 106/73/1 107/74/1
f 107/74/1 108/202/11 105/201/11
f 108/202/11 107/74/1 26/17/1
f 26/17/1 25/177/11 108/202/11
f 109/79/1 110/203/11 111/204/11
f 111/204/11 112/80/1 109/79/1
f 112/80/1 111/204/11 28/178/11
f 28/178/11 27/18/1 112/80/1
f 121/205/12 122/85/1 123/86/1
f 123/86/1 124/206/12 121/205/12
f 124/206/12 123/86/1 30/19/1
f 30/19/1 29/179/12 124/206/12
f 125/91/1 126/207/12 127/208/12
f 127/208/12 128/92/1 125/91/1
f 128/92/1 127/208/12 32/180/12
f 32/180/12 31/20/1 128/92/1
f 137/209/13 138/97/2 139/98/2
f 139/98/2 140/210/13 137/209/13
f 140/210/13 139/98/2 34/21/2
f 34/21/2 33/181/13 140/210/13
f 141/99/2 142/211/13 143/212/13
f 143/212/13 144/100/2 141/99/2
f 144/100/2 143/212/13 36/182/13
f 36/182/13 35/22/2 144/100/2
f 145/213/14 146/101/2 147/102/2
f 147/102/2 148/214/14 145/213/14
f 148/214/14 147/102/2 38/23/2
f 38/23/2 37/183/14 148/214/14
f 149/103/2 150/215/14 151/216/14
f 151/216/14 152/104/2 149/103/2
f 152/104/2 151/216/14 40/184/14
f 40/184/14 39/24/2 152/104/2
f 217/217/15 151/216/14 150/215/14
f 150/215/14 218/218/15 217/217/15
f 219/219/15 40/184/14 151/216/14
f 151/216/14 217/217/15 219/219/15
f 220/220/15 37/183/14 40/184/14
f 40/184/14 219/219/15 220/220/15
f 221/221/15 148/214/14 37/183/14
f 37/183/14 220/220/15 221/221/15
f 222/222/15 145/213/14 148/214/14
f 148/214/14 221/221/15 222/222/15
f 104/200/10 223/223/16 224/224/16
f 224/224/16 101/197/10 104/200/10
f 23/175/10 225/225/16 223/223/16
f 223/223/16 104/200/10 23/175/10
f 22/174/10 226/226/16 225/225/16
f 225/225/16 23/175/10 22/174/10
f 99/195/10 227/227/16 226/226/16
f 226/226/16 22/174/10 99/195/10
f 98/194/10 228/228/16 227/227/16
f 227/227/16 99/195/10 98/194/10
f 229/229/17 143/212/13 142/211/13
f 142/211/13 230/230/17 229/229/17
f 231/231/17 36/182/13 143/212/13
f 143/212/13 229/229/17 231/231/17
f 232/232/17 33/181/13 36/182/13
f 36/182/13 231/231/17 232/232/17
f 233/233/17 140/210/13 33/181/13
f 33/181/13 232/232/17 233/233/17
f 234/234/17 137/209/13 140/210/13
f 140/210/13 233/233/17 234/234/17
f 96/192/8 235/235/18 236/236/18
f 236/236/18 93/189/8 96/192/8
f 15/171/8 237/237/18 235/235/18
f 235/235/18 96/192/8 15/171/8
f 14/170/8 238/238/18 237/237/18
f 237/237/18 15/171/8 14/170/8
f 91/187/8 239/239/18 238/238/18
f 238/238/18 14/170/8 91/187/8
f 90/186/8 240/240/18 239/239/18
f 239/239/18 91/187/8 90/186/8
f 241/241/19 127/208/12 126/207/12
f 126/207/12 242/242/19 241/241/19
f 243/243/19 32/180/12 127/208/12
f 127/208/12 241/241/19 243/243/19
f 244/244/19 29/179/12 32/180/12
f 32/180/12 243/243/19 244/244/19
f 245/245/19 124/206/12 29/179/12
f 29/179/12 244/244/19 245/245/19
f 246/246/19 121/205/12 124/206/12
f 124/206/12 245/245/19 246/246/19
f 100/196/9 247/247/20 248/248/20
f 248/248/20 97/193/9 100/196/9
f 21/173/9 249/249/20 247/247/20
f 247/247/20 100/196/9 21/173/9
f 24/176/9 250/250/20 249/249/20
f 249/249/20 21/173/9 24/176/9
f 103/199/9 251/251/20 250/250/20
f 250/250/20 24/176/9 103/199/9
f 102/198/9 252/252/20 251/251/20
f 251/251/20 103/199/9 102/198/9
f 253/253/21 111/204/11 110/203/11
f 110/203/11 254/254/21 253/253/21
f 255/255/21 28/178/11 111/204/11
f 111/204/11 253/253/21 255/255/21
f 256/256/21 25/177/11 28/178/11
f 28/178/11 255/255/21 256/256/21
f 257/257/21 108/202/11 25/177/11
f 25/177/11 256/256/21 257/257/21
f 258/258/21 105/201/11 108/202/11
f 108/202/11 257/257/21 258/258/21
f 92/188/7 259/259/22 260/260/22
f 260/260/22 89/185/7 92/188/7
f 13/169/7 261/261/22 259/259/22
f 259/259/22 92/188/7 13/169/7
f 16/172/7 262/262/22 261/261/22
f 261/261/22 13/169/7 16/172/7
f 95/191/7 263/263/22 262/262/22
f 262/262/22 16/172/7 95/191/7
f 94/190/7 264/264/22 263/263/22
f 263/263/22 95/191/7 94/190/7
